<?xml version="1.0" encoding="utf-8"?>
<!-- Generator: Adobe Illustrator 27.5.0, SVG Export Plug-In . SVG Version: 6.00 Build 0)  -->
<svg version="1.1" xmlns="http://www.w3.org/2000/svg" xmlns:xlink="http://www.w3.org/1999/xlink" x="0px" y="0px"
	 viewBox="0 0 4000 4000" style="enable-background:new 0 0 4000 4000;" xml:space="preserve">
<g id="Background">
	<g>
		<rect x="0.001" y="-0.001" style="fill:#FFFFFF;" width="4000" height="4000"/>
	</g>
</g>
<g id="Books">
	<g id="_x33_">
		<g id="book_00000169545797305465121930000006934511687420241310_">
			<g>
				<g>
					<polygon style="fill-rule:evenodd;clip-rule:evenodd;fill:#5273A5;" points="2012.158,3184.84 462.411,2635.688 
						2175.828,2301.25 3725.6,2850.43 					"/>
				</g>
				<g>
					<path style="fill-rule:evenodd;clip-rule:evenodd;fill:#FCE5D0;" d="M3658.988,2487.882v349.539l-1699.152,325.485
						l-6.215,1.191h-0.01l-0.01,0.01h-0.019l-7.686,1.471c-0.668-1.645-1.317-3.272-1.965-4.898c0-0.01-0.01-0.01-0.01-0.019
						c-54.702-137.835-32.506-207.174,36-335.813l1068.405-214.415L3658.988,2487.882z"/>
				</g>
				<g style="opacity:0.5;">
					<path style="fill-rule:evenodd;clip-rule:evenodd;fill:#E6D4B8;" d="M3658.988,2487.886v140.698
						c-275.213,42.511-734.891,140.945-1068.865,199.34c-324.054,56.625-589.911,114.457-579.921,325.32l-64.3,12.334
						c-57.209-141.113-35.301-210.576,34.024-340.73L3658.988,2487.886z"/>
				</g>
				<g>
					<path style="fill-rule:evenodd;clip-rule:evenodd;fill:#6C8CC7;" d="M1963.744,3167.694l48.416,17.141l-4.876,0.742
						c-0.01,0.01-0.02,0.01-0.03,0l-0.613,0.099l-0.524,0.02c-0.02,0.01-0.03,0.01-0.039,0l-4.767,0.188l-4.451-0.208
						c-0.01,0-0.01,0-0.01,0l-0.643-0.03l-0.771-0.129c-0.02,0-0.049,0-0.069-0.01l-3.759-0.643c-0.03,0-0.05-0.01-0.059-0.01
						l-0.277-0.05l-0.257-0.079c-0.01,0.01-0.01,0.01-0.02,0l-4.451-1.256l-1.147-0.406c-0.02,0-0.04-0.01-0.059-0.02l-74.122-26.28
						l0.712,1.78l4.085,8.843l4.362,8.279c0.01,0.02,0.02,0.04,0.03,0.059c0.02,0.03,0.04,0.069,0.059,0.099l4.609,7.606
						c0.04,0.069,0.079,0.129,0.109,0.188c0.03,0.039,0.059,0.089,0.089,0.128c0.01,0.01,0.01,0.02,0.02,0.03l4.995,7.141
						l5.46,6.756l5.796,6.162l6.152,5.509l6.39,4.817c0.048,0.034,0.093,0.065,0.14,0.096c0.061,0.042,0.122,0.082,0.183,0.123
						l6.651,4.073l6.854,3.343c0.01,0,0.01,0.01,0.02,0.01c0.04,0.02,0.069,0.03,0.109,0.05c0.01,0,0.03,0.01,0.05,0.02l0.168,0.089
						l-208.469-73.875l-117.395-41.611l-917.041-324.984c-0.01,0-0.02,0-0.02-0.01l-98.721-34.984l-208.104-73.746l-7.201-3.511
						l-6.874-4.164l-6.498-4.886l-6.142-5.539l-5.806-6.162l-5.45-6.755l-5.104-7.329l-4.758-7.834l-3.224-6.132l-1.177-2.236
						l-4.085-8.842l-1.761-4.194l-1.652-4.292l-1.583-4.342l-1.533-4.441l-1.424-4.56l-1.365-4.609l-1.296-4.678l-1.217-4.787
						l-1.137-4.797l-1.068-4.916l-0.979-4.946l-0.92-4.995l-0.821-5.094l-0.781-5.124l-0.682-5.153l-0.623-5.203l-0.514-5.123
						l-0.297-3.343l-0.158-1.84l-0.406-5.212l-0.316-5.302l-0.237-5.272l-0.188-5.321l-0.099-5.331l-0.04-5.361l0.04-5.39
						l0.079-5.361l0.178-5.42l0.228-5.42l0.316-5.45l0.366-5.41l0.455-5.43l0.514-5.41l1.009-8.843l1.177-8.813l1.375-8.823
						l1.543-8.724l1.751-8.665l1.939-8.546l2.117-8.457l2.295-8.328l2.502-8.219l2.671-8.071l2.878-7.952l3.046-7.744l3.224-7.586
						l3.412-7.388l3.6-7.141l3.768-6.943l3.966-6.726l4.144-6.458l4.322-6.201l4.51-5.925l4.698-5.628l4.866-5.321l5.034-5.005
						l0.02-0.02l5.203-4.658l5.41-4.342l5.578-3.966l5.766-3.6l5.915-3.215l6.112-2.829l6.31-2.384l6.469-1.998l6.637-1.543
						l202.387,71.729c0.277,0.099,0.564,0.188,0.841,0.287l39.039,13.837l462.111,163.763l549.991,194.919
						c0.346,0.109,0.682,0.228,1.009,0.346l10.197,3.62l284.184,100.708l-6.647,1.543l-5.934,1.8l-0.554,0.168l-0.633,0.237
						c-0.049,0.01-0.089,0.03-0.139,0.05l-4.629,1.771c-0.03,0.01-0.059,0.02-0.089,0.03l-0.771,0.297l-0.653,0.307
						c-0.02,0.01-0.049,0.02-0.069,0.03l-4.856,2.235l-0.01,0.01l-0.534,0.247l-0.564,0.307c-0.01,0-0.01,0-0.02,0.01l-4.866,2.631
						c-0.02,0.01-0.03,0.02-0.049,0.03l-0.435,0.237l-0.445,0.277c-0.03,0.02-0.059,0.04-0.089,0.059l-4.579,2.858
						c-0.01,0-0.03,0.02-0.05,0.03l-0.603,0.376l-0.692,0.494c-0.01,0-0.03,0.01-0.04,0.03l-4.688,3.353
						c-0.129,0.099-0.267,0.198-0.396,0.307l-5.173,4.154l-4.896,4.362l-0.03,0.03l-0.287,0.257l-0.297,0.287l-0.178,0.178
						l-3.996,3.966c-0.04,0.03-0.069,0.069-0.109,0.099l-0.475,0.475l-0.583,0.633c-0.02,0.03-0.05,0.05-0.069,0.079l-3.026,3.294
						c-0.049,0.049-0.099,0.108-0.158,0.178l-1.049,1.137l-1.177,1.424c-0.04,0.04-0.069,0.079-0.099,0.119l-2.76,3.333l-0.03,0.03
						l-0.594,0.722l-0.633,0.831c-0.03,0.03-0.049,0.059-0.069,0.089l-3.363,4.431c-0.049,0.059-0.099,0.118-0.139,0.178
						l-0.326,0.435l-0.237,0.346c-0.02,0.02-0.03,0.03-0.03,0.04l-3.782,5.441c-0.016,0.023-0.031,0.047-0.047,0.07
						c-0.194,0.296-0.388,0.592-0.582,0.888l-3.589,5.598c-0.051,0.083-0.103,0.165-0.154,0.248
						c-0.029,0.045-0.058,0.094-0.084,0.138l-3.729,6.281c-0.188,0.336-0.386,0.683-0.574,1.029l-2.651,4.856
						c-0.04,0.06-0.079,0.119-0.099,0.188l-0.643,1.167l-0.643,1.286c-0.02,0.02-0.03,0.05-0.039,0.079l-2.404,4.807
						c-0.306,0.603-0.603,1.217-0.89,1.84l-2.136,4.609c-0.04,0.059-0.069,0.118-0.089,0.178l-0.801,1.731l-0.85,1.998
						c-0.05,0.099-0.099,0.198-0.129,0.307l-1.226,2.878c-0.069,0.119-0.119,0.247-0.168,0.376l-0.861,2.027l-0.524,1.345
						c-0.049,0.109-0.089,0.218-0.129,0.336l-2.384,6.093c0,0.01,0,0.02-0.01,0.02l-2.305,6.36
						c-0.059,0.158-0.119,0.307-0.168,0.465l-0.386,1.078l-0.267,0.811c-0.039,0.099-0.069,0.208-0.099,0.306l-2.305,6.954
						c0,0.01,0,0.02-0.01,0.03l-2.473,8.19c-0.01,0.01-0.01,0.02-0.01,0.03l-1.533,5.499c-0.049,0.129-0.079,0.247-0.109,0.376
						l-0.673,2.423l-0.762,3.026c-0.188,0.712-0.366,1.434-0.544,2.146l-0.821,3.284l-0.732,3.244
						c-0.168,0.742-0.336,1.494-0.504,2.245l-0.692,3.086l-0.416,2.087c-0.02,0.079-0.04,0.158-0.049,0.237l-1.009,4.985
						c-0.148,0.761-0.297,1.533-0.435,2.305l-0.9,4.985c-0.02,0.059-0.03,0.118-0.03,0.188l-0.475,2.601l-0.376,2.453
						c0,0-0.01,0.01,0,0.02c-0.356,2.196-0.692,4.411-1.009,6.627l-1.147,8.476c0,0.01,0,0.03-0.01,0.05l-0.989,8.852
						c-0.139,1.375-0.277,2.74-0.396,4.115c-0.079,0.89-0.158,1.78-0.237,2.68c-0.109,1.177-0.198,2.344-0.287,3.511
						c-0.079,0.91-0.138,1.81-0.198,2.72c-0.02,0.079-0.02,0.158-0.02,0.238l-0.218,2.987l-0.267,4.827
						c-0.01,0.198-0.02,0.396-0.03,0.594l-0.247,5.42l-0.168,5.39l-0.04,2.413c-0.01,0.277-0.01,0.554-0.01,0.831
						c-0.04,1.444-0.05,2.878-0.05,4.312c-0.01,0.208-0.01,0.416-0.01,0.613l-0.03,2.611l0.059,5.015v0.346l0.04,1.929
						c0,0.573,0.01,1.137,0.03,1.711c0.01,0.475,0.02,0.94,0.03,1.415c0.02,0.583,0.03,1.167,0.059,1.75l0.138,3.848l0.217,4.74
						c0.018,0.365,0.033,0.728,0.06,1.095l0.079,1.286c0.01,0.317,0.02,0.643,0.049,0.959l0.148,2.463l0.386,5.153v0.059
						l0.445,5.213l0.554,5.153l0.574,5.173l0.574,4.055c0.01,0.168,0.04,0.336,0.059,0.494c0,0.01,0,0.01,0.01,0.02
						c0,0.06,0.01,0.119,0.02,0.178c0.02,0.138,0.04,0.267,0.059,0.406l0.059,0.416l0.712,4.708l0.821,5.094
						c0.099,0.524,0.188,1.048,0.287,1.573l0.633,3.432l0.989,4.936l1.078,4.886l1.128,4.856l1.216,4.728l1.266,4.708v0.01
						l1.375,4.57c0.01,0.03,0.02,0.069,0.03,0.099l1.414,4.461l1.038,3.066c0.198,0.593,0.406,1.177,0.613,1.771
						c0.099,0.296,0.198,0.593,0.307,0.89c0.099,0.287,0.218,0.574,0.326,0.851c0,0.01,0.01,0.02,0.01,0.03l36.23,12.828
						l9.654,3.423h0.01L1963.744,3167.694z"/>
				</g>
				<g>
					<path style="fill-rule:evenodd;clip-rule:evenodd;fill:#5678B3;" d="M1967.928,3221.809c-0.01,0-0.01-0.01-0.019-0.01
						c-0.155-0.068-0.319-0.135-0.474-0.194c-0.242-0.107-0.484-0.213-0.716-0.319c-0.048-0.029-0.107-0.049-0.155-0.078
						c-0.155-0.068-0.319-0.135-0.474-0.213c-0.358-0.155-0.707-0.319-1.055-0.493c-0.668-0.3-1.317-0.62-1.955-0.958
						c-0.748-0.38-1.477-0.796-2.213-1.2c-0.467-0.251-0.929-0.511-1.398-0.784c-0.395-0.227-0.789-0.463-1.184-0.697
						c-0.8-0.48-1.602-0.953-2.388-1.462c-0.01-0.01-0.01-0.019-0.019-0.019c-0.484-0.32-0.968-0.629-1.452-0.958
						c-0.745-0.503-1.5-1.026-2.236-1.568c-0.61-0.436-1.22-0.881-1.83-1.355c-0.184-0.146-0.377-0.291-0.552-0.426
						c-0.184-0.145-0.368-0.29-0.552-0.435c-0.523-0.426-1.046-0.852-1.568-1.297c-1.016-0.813-2.023-1.675-3.01-2.556h-0.01
						c-0.532-0.484-1.055-0.958-1.578-1.452c-0.533-0.499-1.055-1.018-1.58-1.532c-1.974-1.956-3.899-3.997-5.767-6.125
						c-0.299-0.342-0.591-0.687-0.885-1.031c-0.521-0.614-1.044-1.224-1.555-1.854c-0.01,0,0-0.01,0-0.01
						c-0.223-0.261-0.436-0.523-0.639-0.794c-0.31-0.377-0.62-0.755-0.91-1.142c-0.097-0.135-0.203-0.261-0.3-0.397
						c-0.397-0.503-0.784-1.016-1.171-1.53c-0.445-0.591-0.881-1.191-1.326-1.791c-0.426-0.59-0.852-1.2-1.268-1.801
						c-0.406-0.581-0.804-1.171-1.21-1.762c0-0.01,0-0.01-0.01-0.019h-0.01c-0.387-0.591-0.784-1.181-1.171-1.771
						c-0.01-0.01-0.01-0.019-0.019-0.029c-0.029-0.039-0.058-0.087-0.087-0.126c0-0.01-0.01-0.01-0.01-0.019
						c-0.3-0.445-0.571-0.891-0.862-1.345c-0.358-0.562-0.716-1.123-1.046-1.684c-0.068-0.116-0.145-0.223-0.213-0.339
						c-0.213-0.329-0.416-0.668-0.61-1.017c-0.048-0.077-0.097-0.165-0.145-0.242c-0.6-1.007-1.181-2.004-1.762-3.02
						c-0.029-0.039-0.048-0.087-0.077-0.126c-0.019-0.029-0.039-0.077-0.058-0.106c-0.01-0.019-0.019-0.039-0.029-0.058
						c-0.097-0.155-0.184-0.32-0.271-0.484c-0.116-0.194-0.223-0.397-0.329-0.591c-0.852-1.5-1.675-3.049-2.469-4.617
						c-0.232-0.445-0.455-0.891-0.677-1.336c-0.097-0.213-0.203-0.416-0.31-0.62c-0.097-0.213-0.203-0.426-0.3-0.629l-0.687-1.394
						l-0.242-0.494l-0.048-0.107c-0.019-0.029-0.029-0.058-0.039-0.087l-0.165-0.32l-0.058-0.135h-0.01
						c-0.078-0.155-0.155-0.319-0.232-0.493c-0.145-0.32-0.29-0.639-0.436-0.959c-0.145-0.319-0.3-0.629-0.435-0.958
						c-0.155-0.32-0.31-0.639-0.445-0.968c-0.155-0.32-0.29-0.639-0.426-0.968c-0.155-0.329-0.29-0.658-0.436-0.978
						c-0.145-0.319-0.281-0.648-0.426-0.977c-0.145-0.329-0.281-0.649-0.406-0.978c-0.116-0.261-0.223-0.542-0.31-0.803
						c-0.465-1.094-0.929-2.188-1.375-3.292c-0.455-1.123-0.9-2.255-1.326-3.397c-0.261-0.745-0.542-1.481-0.803-2.227
						c0-0.01-0.01-0.019-0.01-0.029c-0.107-0.281-0.223-0.562-0.319-0.852c-0.068-0.146-0.116-0.3-0.165-0.446
						s-0.097-0.291-0.145-0.445c-0.203-0.591-0.416-1.171-0.61-1.771c-0.213-0.581-0.407-1.171-0.62-1.781
						c-0.135-0.426-0.281-0.852-0.426-1.288c-0.068-0.213-0.145-0.436-0.213-0.658c-0.174-0.523-0.349-1.045-0.523-1.578
						c-0.203-0.61-0.397-1.229-0.581-1.859c-0.135-0.455-0.281-0.9-0.416-1.355c-0.368-1.21-0.726-2.439-1.084-3.669
						c0-0.01,0-0.019,0-0.019c-0.329-1.162-0.658-2.333-0.968-3.504c-0.097-0.397-0.194-0.794-0.3-1.201
						c-0.107-0.358-0.203-0.707-0.3-1.065c-0.01-0.029-0.019-0.058-0.029-0.097c-0.106-0.387-0.213-0.784-0.31-1.181
						c-0.116-0.474-0.242-0.948-0.358-1.433c-0.019-0.078-0.039-0.145-0.048-0.223c-0.058-0.242-0.116-0.494-0.165-0.726
						c-0.107-0.406-0.203-0.813-0.3-1.21c-0.106-0.406-0.203-0.813-0.291-1.22c-0.184-0.803-0.368-1.617-0.542-2.43
						c-0.165-0.697-0.319-1.384-0.484-2.091c-0.184-0.803-0.358-1.616-0.523-2.42c-0.019-0.116-0.039-0.252-0.068-0.377
						c-0.048-0.223-0.097-0.455-0.145-0.687c-0.039-0.165-0.078-0.31-0.107-0.474c-0.242-1.152-0.465-2.314-0.687-3.475
						c-0.01-0.097-0.029-0.194-0.048-0.3c-0.019-0.087-0.039-0.184-0.058-0.271c-0.01-0.02-0.019-0.049-0.019-0.078
						c-0.01-0.068-0.019-0.135-0.039-0.194c0-0.01-0.01-0.029-0.01-0.048c-0.184-0.939-0.339-1.888-0.513-2.836
						c-0.116-0.61-0.223-1.21-0.319-1.82c-0.213-1.191-0.406-2.352-0.591-3.543c-0.039-0.184-0.068-0.368-0.087-0.542
						c-0.039-0.252-0.068-0.503-0.107-0.765c-0.039-0.271-0.087-0.542-0.135-0.813c-0.01-0.039-0.019-0.077-0.029-0.116
						c-0.019-0.106-0.039-0.213-0.048-0.339c-0.174-1.094-0.339-2.217-0.494-3.34c-0.048-0.31-0.087-0.61-0.126-0.919
						c-0.01-0.058-0.019-0.116-0.019-0.184c-0.01-0.01-0.01-0.01-0.01-0.019c-0.01-0.019-0.01-0.039-0.01-0.058
						c-0.223-1.471-0.436-2.972-0.62-4.491c-0.223-1.713-0.416-3.446-0.581-5.169c-0.223-1.733-0.397-3.466-0.552-5.15
						c-0.164-1.733-0.31-3.466-0.445-5.218v-0.058c-0.164-1.675-0.281-3.398-0.387-5.13c0-0.097-0.01-0.203-0.019-0.31
						c-0.087-1.152-0.165-2.323-0.213-3.495c-0.019-0.271-0.029-0.542-0.039-0.813v-0.116c-0.019-0.271-0.039-0.542-0.058-0.813
						c0-0.087-0.01-0.184-0.01-0.281c-0.01-0.175-0.019-0.349-0.029-0.523c-0.019-0.252-0.029-0.513-0.039-0.765
						c-0.068-1.016-0.106-2.042-0.145-3.059l-247.569-85.04l-73.85-25.362l-933.512-320.654l-44.364-15.246h-0.01l-0.039-0.01
						l-30.028-10.319l-219.274-75.311l0.3,3.34l0.513,5.121l0.629,5.208l0.678,5.15l0.784,5.121l0.823,5.101l0.92,4.985l0.978,4.947
						l1.065,4.917l1.142,4.801l1.21,4.782l1.297,4.685l1.365,4.608l1.423,4.559l1.539,4.443l1.578,4.337l1.655,4.298l1.762,4.191
						l4.085,8.838l1.171,2.236l3.224,6.137l4.763,7.831l5.101,7.328l5.45,6.757l5.808,6.156l6.137,5.547l6.505,4.879l6.873,4.172
						l7.202,3.504l208.103,73.753l98.718,34.984c0,0.01,0.01,0.01,0.019,0.01l917.008,324.952l117.246,41.547l208.365,73.83
						C1967.957,3221.819,1967.938,3221.819,1967.928,3221.809z"/>
				</g>
				<g>
					<path style="fill-rule:evenodd;clip-rule:evenodd;fill:#7FA3D5;" d="M413.112,2276.297l5.228-4.644l5.411-4.348l5.573-3.961
						l5.767-3.601l5.92-3.217l6.112-2.829l6.304-2.381l6.471-1.994l6.638-1.549l1549.761,549.21l-6.652,1.549l-6.485,1.964
						l-6.262,2.381l-6.126,2.83l-5.934,3.217l-5.768,3.601l-5.575,3.991l-5.409,4.348l-5.216,4.644l-5.05,5.003
						C1956.857,2831.553,413.112,2276.297,413.112,2276.297z"/>
				</g>
				<g>
					<polygon style="fill-rule:evenodd;clip-rule:evenodd;fill:#6C8CC7;" points="2016.297,2796.983 466.537,2247.773 
						2175.828,1914.138 3725.6,2463.348 					"/>
				</g>
				<g>
					<path style="fill-rule:evenodd;clip-rule:evenodd;fill:#96B9DD;" d="M3725.6,2893.159l-1706.57,333.099
						c-50.915,9.943-86.294-19.355-107.101-67.709c-9.52-22.066-15.757-48.239-18.82-76.107
						c-3.007-27.304-3.035-56.513-0.082-85.397c9.602-94.596,51.438-186.039,123.27-200.061L3725.6,2463.348v42.698
						l-1702.433,332.324c-52.156,10.184-83.392,85.01-91.313,163.11c-2.623,25.697-2.623,51.69,0.082,75.988
						c2.594,23.7,7.754,45.528,15.454,63.45c13.273,30.877,34.825,49.787,64.767,43.921L3725.6,2850.43V2893.159z"/>
				</g>
				<g>
					<path style="fill-rule:evenodd;clip-rule:evenodd;fill:#3D659E;" d="M1968.037,3221.857l-208.43-73.855l-117.246-41.552
						l-917.011-324.954c-0.01,0-0.02,0-0.02-0.01l-98.721-34.984l-208.104-73.746l-7.201-3.511l-6.874-4.164l-6.498-4.886
						l-6.142-5.539l-5.806-6.162l-5.45-6.755l-5.104-7.329l-4.758-7.834l-3.234-6.132h0.01l168.273,59.167l60.967,21.453
						l83.588,29.415l926.556,326.022l84.695,29.801l223.237,78.553h0.01l0.059,0.128l0.495,1.009l0.682,1.395
						c0.198,0.415,0.406,0.831,0.613,1.246c1.108,2.235,2.275,4.441,3.472,6.548c0.089,0.158,0.178,0.327,0.277,0.485
						c0.01,0.02,0.02,0.04,0.03,0.059c0.02,0.03,0.04,0.069,0.059,0.099c0.603,1.058,1.207,2.107,1.83,3.146
						c0.317,0.544,0.633,1.078,0.969,1.602c0.336,0.564,0.692,1.127,1.049,1.681c0.287,0.465,0.574,0.91,0.87,1.365
						c0.03,0.039,0.059,0.089,0.089,0.128c0.791,1.207,1.603,2.403,2.423,3.581c0.415,0.603,0.841,1.207,1.266,1.8
						c0.445,0.603,0.88,1.197,1.325,1.79c0.386,0.514,0.772,1.029,1.167,1.533c0.94,1.226,1.909,2.423,2.888,3.59
						c0.465,0.554,0.93,1.098,1.404,1.632c1.879,2.146,3.808,4.194,5.796,6.162c1.028,1.019,2.077,1.998,3.135,2.948
						c0.989,0.88,1.998,1.741,3.017,2.562c0.514,0.445,1.038,0.87,1.563,1.296c0.366,0.287,0.732,0.574,1.108,0.861
						c0.395,0.307,0.801,0.613,1.207,0.9c0.405,0.307,0.821,0.604,1.236,0.89c0.059,0.05,0.118,0.089,0.188,0.138
						c0.949,0.673,1.919,1.325,2.888,1.948c1.177,0.762,2.374,1.494,3.59,2.186c0.524,0.306,1.048,0.603,1.583,0.89
						c0.346,0.188,0.682,0.376,1.029,0.564c0.969,0.524,1.949,1.029,2.948,1.484c0.504,0.257,1.019,0.485,1.533,0.712
						c0.445,0.208,0.91,0.405,1.365,0.593C1967.968,3221.827,1967.997,3221.837,1968.037,3221.857z"/>
				</g>
			</g>
			<g style="opacity:0.75;">
				<path style="fill-rule:evenodd;clip-rule:evenodd;fill:#6C8CC7;" d="M1759.607,3148.002
					c-15.637-7.586-29.583-17.873-41.947-30.078c-3.65-3.571-7.131-7.309-10.494-11.186c-2.512-2.938-4.975-5.925-7.339-9.001
					c-2.868-3.709-5.638-7.527-8.298-11.434c-4.233-6.221-8.209-12.67-11.928-19.307c-16.755-29.821-28.436-63.232-35.914-94.972
					c-0.03-0.119-0.05-0.228-0.079-0.346c-0.425-1.83-0.86-3.64-1.256-5.45c-1.77-7.982-3.313-16.063-4.569-24.163
					c-2.364-15.133-3.838-30.405-4.352-45.548c-2.127-62.629,12.146-123.378,47.456-164.772c1.019-1.197,2.047-2.364,3.096-3.521
					l0.02-0.03c0.336-0.356,0.692-0.752,1.029-1.108c0.712-0.781,1.434-1.543,2.156-2.275c0.237-0.257,0.475-0.504,0.742-0.771
					c0.92-0.93,1.81-1.84,2.76-2.74c11.74-11.414,25.667-17.922,41.423-25.024c0.069-0.03,0.149-0.069,0.218-0.099
					c-0.208-0.03-4.441-1.464-10.415-3.521c-0.326-0.118-0.663-0.237-1.009-0.346c-15.38-5.312-40.859-14.193-40.859-14.193
					s-7.567,1.75-22.136,8.16c-2.423,1.068-7.982,4.322-10.722,5.816c-1.137,0.603-2.265,1.236-3.373,1.879
					c-1.543,0.89-3.076,1.81-4.579,2.77c-1.276,0.791-2.512,1.592-3.749,2.423c-2.72,1.84-5.341,3.759-7.863,5.727
					c-0.959,0.752-1.909,1.513-2.858,2.305c-1.118,0.93-2.235,1.889-3.353,2.868c-0.099,0.089-0.198,0.168-0.297,0.257
					c-1.019,0.88-1.998,1.781-2.948,2.7c-0.049,0.04-0.128,0.099-0.178,0.148c-0.831,0.791-1.652,1.592-2.453,2.394
					c-0.485,0.485-0.94,0.94-1.395,1.414c-0.633,0.653-1.256,1.296-1.879,1.948l0.01,0.02c-39,41.413-51.937,105.397-49.108,169.618
					c0.682,15.261,2.225,30.563,4.54,45.577c0.623,4.085,1.306,8.14,2.047,12.175c1.098,5.974,2.314,11.889,3.66,17.725
					c6.073,27.002,14.451,52.283,24.213,73.905c2.948,6.538,6.024,12.739,9.208,18.555c1.741,3.185,3.511,6.251,5.311,9.198
					c5.163,8.417,10.148,15.905,15.113,22.611c2.324,3.155,4.658,6.122,6.963,8.951c2.72,3.284,5.41,6.34,8.14,9.189l0.03,0.03
					l117.395,41.611C1759.726,3148.061,1759.666,3148.031,1759.607,3148.002z M708.921,2766.729
					c-3.689-3.729-7.24-7.656-10.652-11.731c-2.562-3.037-5.044-6.142-7.438-9.337c-3.689-4.886-7.201-9.96-10.554-15.183
					c-4.579-7.131-8.852-14.53-12.828-22.136c-2.68-5.114-5.222-10.326-7.636-15.598c-8.823-19.277-15.924-39.415-21.473-59.305
					c-0.722-2.592-1.424-5.193-2.097-7.784c-1.414-5.43-2.72-10.84-3.897-16.181c-0.485-2.216-0.959-4.461-1.414-6.686
					c-0.04-0.148-0.069-0.297-0.099-0.445c-3.185-15.627-5.479-31.522-6.815-47.348c-5.994-70.462,6.914-140.44,44.796-186.749
					c0.969-1.177,1.949-2.344,2.948-3.491l0.03-0.01c0.89-1.049,1.78-2.067,2.72-3.056c0.752-0.88,1.543-1.721,2.334-2.512
					c0.86-0.93,1.761-1.84,2.661-2.7c2.651-2.68,5.46-5.222,8.348-7.656c0.969-0.831,1.939-1.642,2.928-2.413
					c0.969-0.811,2.057-1.494,2.997-2.334c8.427-7.606,15.311-9.208,15.024-10.445c-0.059-0.326-0.653-0.633-1.869-1.019
					c-4.827-1.533-24.401-8.486-37.17-12.819c-0.277-0.099-0.564-0.188-0.841-0.287c-4.975-1.681-8.783-2.927-10.049-3.205
					c-4.5-1.009-14.688,5.262-23.639,10.188c-1.078,0.594-2.136,1.177-3.175,1.8c-0.554,0.326-1.098,0.653-1.642,0.979
					c-0.079,0.04-0.168,0.089-0.237,0.148c-0.969,0.584-1.899,1.177-2.829,1.771c-1.118,0.702-2.226,1.434-3.294,2.196
					c-2.265,1.533-4.451,3.145-6.587,4.807c-0.455,0.356-0.88,0.702-1.335,1.058c-0.722,0.594-1.454,1.187-2.176,1.781
					c-0.722,0.603-1.444,1.217-2.136,1.83c-1.325,1.137-2.621,2.304-3.887,3.501c-2.839,2.641-5.814,5.193-8.13,8.288
					c-32.077,42.859-52.58,119.976-46.101,191.655c1.434,15.964,3.758,31.859,6.785,47.308c0.425,2.166,0.86,4.332,1.315,6.479
					c1.098,5.232,2.275,10.405,3.531,15.509c0.742,3.046,1.523,6.073,2.324,9.07c5.292,19.762,11.691,38.347,18.842,54.993
					c3.254,7.566,6.657,14.727,10.188,21.404c1.998,3.798,4.045,7.448,6.122,10.919c0.415,0.663,0.801,1.335,1.216,2.008
					c4.777,7.903,9.446,14.994,14.085,21.424c2.344,3.264,4.678,6.36,7.042,9.288c0.485,0.603,0.969,1.207,1.454,1.8l98.721,34.984
					C719.583,2776.956,714.113,2772.01,708.921,2766.729z"/>
			</g>
			<g style="opacity:0.45;">
				<path style="fill-rule:evenodd;clip-rule:evenodd;fill:#EAAE4E;" d="M3658.988,2658.833v12.39
					c-79.396,14.511-189.692,33.755-293.414,51.634c-149.19,25.72-284.77,48.604-295.156,50.511l282.543-54.983L3658.988,2658.833z"
					/>
			</g>
			<g style="opacity:0.45;">
				<path style="fill:#EAAE4E;" d="M3301.518,2773.134l-401.936,80.548l-553.566,93.691
					C2369.393,2943.485,3100.141,2807.816,3301.518,2773.134z"/>
			</g>
			<g style="opacity:0.45;">
				<path style="fill:#EAAE4E;" d="M2606.079,2968.254l-351.594,71.098l-320.961,52.732
					C1949.984,3089.286,2464.305,2993.091,2606.079,2968.254z"/>
			</g>
			<g>
				<g>
					<g>
						
							<rect x="723.319" y="2470.224" transform="matrix(0.8611 -0.5084 0.5084 0.8611 -1189.7017 722.8875)" style="fill:#FFB000;" width="10.07" height="137.803"/>
					</g>
				</g>
				<g>
					<g>
						
							<rect x="666.82" y="2529" transform="matrix(0.8611 -0.5084 0.5084 0.8611 -1186.7306 723.5695)" style="fill:#FFB000;" width="128.544" height="10.07"/>
					</g>
				</g>
				<g>
					<g>
						
							<rect x="641.638" y="2526.066" transform="matrix(0.2494 -0.9684 0.9684 0.2494 -1906.2479 2602.9001)" style="fill:#FFB000;" width="168.546" height="10.069"/>
					</g>
				</g>
				<g>
					<g>
						<path style="fill:#FFB000;" d="M795.947,2566.866c-18.794-9.647-39.801-15.636-60.112-21.432
							c-22.343-6.376-45.453-12.967-66.297-24.501l4.869-8.812c19.841,10.977,42.39,17.409,64.192,23.625
							c20.778,5.93,42.269,12.061,61.945,22.16L795.947,2566.866z"/>
					</g>
				</g>
			</g>
			<g>
				<g>
					<g>
						
							<rect x="1771.702" y="2848.202" transform="matrix(0.8611 -0.5084 0.5084 0.8611 -1236.2716 1308.3564)" style="fill:#FFB000;" width="10.07" height="137.803"/>
					</g>
				</g>
				<g>
					<g>
						
							<rect x="1715.203" y="2906.978" transform="matrix(0.8611 -0.5084 0.5084 0.8611 -1233.3008 1309.0364)" style="fill:#FFB000;" width="128.544" height="10.07"/>
					</g>
				</g>
				<g>
					<g>
						
							<rect x="1690.021" y="2904.044" transform="matrix(0.2494 -0.9684 0.9684 0.2494 -1485.337 3901.8848)" style="fill:#FFB000;" width="168.546" height="10.069"/>
					</g>
				</g>
				<g>
					<g>
						<path style="fill:#FFB000;" d="M1844.33,2944.844c-18.793-9.647-39.801-15.636-60.111-21.432
							c-22.343-6.376-45.453-12.968-66.297-24.501l4.869-8.812c19.841,10.977,42.39,17.409,64.192,23.625
							c20.778,5.93,42.269,12.061,61.946,22.16L1844.33,2944.844z"/>
					</g>
				</g>
			</g>
			<g style="opacity:0.4;">
				
					<ellipse transform="matrix(0.3364 -0.9417 0.9417 0.3364 -1749.6141 2898.5713)" style="fill:#FFFFFF;" cx="1181.796" cy="2690.677" rx="46.328" ry="363.189"/>
			</g>
		</g>
	</g>
	<g id="_x32_">
		<g id="shadow_00000146500111919597242560000000967525486628988586_" style="opacity:0.5;">
			<path style="fill-rule:evenodd;clip-rule:evenodd;fill:#939598;" d="M557.15,2203.799l502.074,284.772
				c188.673,136.879,339.511,284.595,453.798,437.583c68.023,91.022,165.617,129.553,212.447,59.014
				c65.375-98.526,104.018-204.316,227.205-228.406l1436.517-283.109l-227.187-112.719L1426.136,2106.55L557.15,2203.799z"/>
		</g>
		<g id="book_00000087399739870292971290000018135706153726748801_">
			<g>
				<g>
					<g>
						<polygon style="fill-rule:evenodd;clip-rule:evenodd;fill:#E68E2D;" points="1597.491,2772.105 505.764,2098.285 
							2238.041,1756.908 3362.318,2420.307 						"/>
					</g>
					<g>
						<path style="fill-rule:evenodd;clip-rule:evenodd;fill:#FAA61A;" d="M1617.576,2491.533l-14.938,3.812
							c-0.019,0-0.029,0-0.048,0.01c-0.048,0.01-0.096,0.029-0.144,0.048h-0.01c-0.019,0.01-0.029,0.01-0.048,0.019l-13.61,5.207
							c-0.029,0.01-0.067,0.029-0.096,0.039l-0.26,0.096l-0.26,0.135c-0.029,0.01-0.067,0.029-0.096,0.048l-12.532,6.554
							l-0.144,0.077l-0.096,0.068c-0.01,0-0.029,0.01-0.038,0.019l-11.819,7.969l-0.106,0.077l-0.125,0.106l-10.568,8.913
							l-0.318,0.27l-0.27,0.279l-9.375,9.721l-0.375,0.385l-0.347,0.443l-8.653,10.972l-7.912,12.041l-0.087,0.135l-0.106,0.202
							l-6.814,12.647c-0.029,0.048-0.048,0.096-0.067,0.145l-5.929,13.475l-4.957,14.052l-3.927,14.437l-2.926,14.688l-1.913,14.806
							c-0.001,0.012-0.002,0.025-0.003,0.037l-0.913,14.869l0.114,14.65c0.004,0.097,0.008,0.194,0.012,0.291l0.836,10.901
							l3.84,24.063l1.386,6.131l0.327,1.425l4.167,13.321l5.14,12.618l6.189,11.887l7.19,10.953l8.191,9.972l9.137,8.755
							c0.046,0.039,0.092,0.078,0.138,0.117l10.138,7.539c-0.029-0.01-0.058-0.029-0.087-0.048L524.162,2182.967v-0.01
							l-62.803-37.047l-31.05-18.326l-10.222-7.594l-9.192-8.807l-8.2-9.981l-7.18-10.963l-6.179-11.848l-3.898-9.548l-1.271-3.099
							l-4.158-13.311l-3.128-13.85l-2.127-14.264l-1.145-14.582l-0.096-14.803l0.895-14.861l1.915-14.851l1.973-9.923l0.953-4.755
							l3.937-14.418l4.957-14.052l5.958-13.523l6.978-12.946l7.979-12.204l8.99-11.348l10.039-10.395l11.021-9.346l12.022-8.104
							l0.837-0.433l12.224-6.41l14.062-5.361l15.092-3.84L839.62,2032.49h0.01l0.019,0.019L1617.576,2491.533z"/>
					</g>
					<g>
						<polygon style="fill-rule:evenodd;clip-rule:evenodd;fill:#FAA61A;" points="1617.58,2491.532 493.345,1828.16 
							2185.857,1577.72 3362.318,2150.957 						"/>
					</g>
					<g>
						<polygon style="fill-rule:evenodd;clip-rule:evenodd;fill:#F4E3D4;" points="3309.554,2190.586 3309.554,2401.254 
							1546.291,2751.2 1514.792,2632.251 1574.615,2523.563 						"/>
					</g>
					<g>
						<path style="fill-rule:evenodd;clip-rule:evenodd;fill:#FCE5D0;" d="M3309.551,2190.587v86.031
							c-331.235,49.801-904.736,167.571-1085.333,201.695c-207.48,39.197-631.581,81.075-589.733,255.352l-88.197,17.537
							l-31.492-118.948l59.82-108.69L3309.551,2190.587z"/>
					</g>
					<g>
						<path style="fill-rule:evenodd;clip-rule:evenodd;fill:#FCD015;" d="M3362.318,2194.579l-1737.716,339.203
							c-119.944,23.404-112.826,250.949,5.408,227.902l1732.308-341.377v43.622l-1725.283,339.978
							c-178.918,35.283-185.762-279.921-19.456-312.375l1744.738-340.575V2194.579z"/>
					</g>
					<g style="opacity:0.5;">
						<path style="fill-rule:evenodd;clip-rule:evenodd;fill:#E68E2D;" d="M524.162,2182.967v-0.01l-62.803-37.047l-31.05-18.326
							l-10.222-7.594l-9.192-8.807l-8.2-9.981l-7.18-10.963l-6.179-11.848l-3.898-9.548l-1.271-3.099l-4.158-13.311l-3.128-13.85
							l-2.127-14.264l-1.145-14.582l-0.096-14.803l0.895-14.861l1.915-14.851l1.973-9.923l86.721,51.301l56.931,33.678
							l69.502,41.128h0.01l910.636,538.843c-0.019,0.077-0.029,0.154-0.048,0.231c-0.116,0.549-0.221,1.107-0.327,1.655
							c-0.154,0.76-0.289,1.521-0.433,2.281c-0.25,1.386-0.491,2.791-0.712,4.206c-0.174,1.029-0.334,2.063-0.491,3.097
							c-0.113,0.757-0.221,1.513-0.326,2.271c-0.141,1.011-0.276,2.022-0.401,3.035c-0.128,1.035-0.25,2.071-0.363,3.106
							c-0.117,1.085-0.228,2.17-0.328,3.252c-0.116,1.227-0.238,2.453-0.333,3.68c-0.019,0.221-0.029,0.443-0.048,0.664
							c-0.067,0.905-0.135,1.819-0.192,2.724c-0.019,0.347-0.039,0.703-0.058,1.049c-0.067,1.04-0.115,2.079-0.163,3.118
							c-0.048,1.242-0.096,2.483-0.125,3.715c-0.038,1.342-0.063,2.683-0.073,4.02c-0.011,1.338-0.008,2.675,0.006,4.007
							c0.011,1.211,0.042,2.42,0.074,3.628c0.024,0.845,0.054,1.688,0.087,2.532c0.039,0.989,0.074,1.978,0.127,2.964
							c0.019,0.356,0.038,0.722,0.058,1.078c0.038,0.693,0.087,1.386,0.135,2.079c0.068,1.043,0.151,2.085,0.238,3.125
							c0.052,0.627,0.109,1.253,0.169,1.879c0.079,0.845,0.156,1.692,0.247,2.532c0.135,1.28,0.279,2.56,0.433,3.831
							c0.019,0.106,0.029,0.202,0.038,0.299c0.337,2.666,0.731,5.313,1.165,7.94c0.116,0.664,0.231,1.319,0.347,1.983
							c0.856,4.774,1.877,9.49,3.08,14.1c0.125,0.491,0.25,0.972,0.385,1.463c0.606,2.281,1.251,4.533,1.944,6.747
							c0.346,1.116,0.703,2.214,1.078,3.311c0.366,1.097,0.751,2.185,1.145,3.263c0.578,1.627,1.174,3.234,1.8,4.822
							c0.067,0.183,0.144,0.356,0.212,0.529c0.144,0.356,0.289,0.712,0.423,1.059c0.106,0.26,0.212,0.53,0.327,0.789
							c0.019,0.038,0.038,0.087,0.048,0.125c0.173,0.414,0.346,0.838,0.529,1.251c0.356,0.837,0.712,1.675,1.097,2.502
							c0.231,0.52,0.472,1.03,0.703,1.54c0.414,0.905,0.828,1.8,1.261,2.685c0.01,0.019,0.019,0.039,0.029,0.058
							c0.443,0.924,0.905,1.838,1.376,2.743c0.308,0.606,0.625,1.213,0.963,1.819c0.279,0.539,0.568,1.078,0.876,1.617
							c0.029,0.067,0.058,0.125,0.106,0.192c0.51,0.934,1.039,1.858,1.578,2.772c0.423,0.741,0.866,1.482,1.319,2.204
							c0.289,0.491,0.587,0.982,0.905,1.463c0.27,0.453,0.558,0.905,0.857,1.348c0.212,0.337,0.433,0.683,0.674,1.02
							c0.433,0.674,0.876,1.338,1.348,1.992c0.096,0.144,0.193,0.298,0.298,0.443c0.587,0.837,1.184,1.665,1.79,2.483
							c0.635,0.876,1.29,1.742,1.944,2.599c0.789,1.02,1.588,2.031,2.416,3.013c0.318,0.395,0.635,0.78,0.972,1.155
							c0.578,0.683,1.165,1.357,1.771,2.021c0.356,0.404,0.722,0.799,1.088,1.184c0.366,0.395,0.731,0.789,1.097,1.174
							c0.693,0.741,1.405,1.463,2.137,2.185c1.396,1.405,2.849,2.762,4.341,4.062c0.154,0.144,0.318,0.279,0.472,0.414
							c0.77,0.674,1.549,1.338,2.339,1.973c0.789,0.655,1.588,1.29,2.387,1.916c2.002,1.55,4.062,3.013,6.198,4.399
							L524.162,2182.967z"/>
					</g>
					<g>
						<path style="fill-rule:evenodd;clip-rule:evenodd;fill:#EA8518;" d="M524.162,2182.967v-0.01l-62.803-37.047l-31.05-18.326
							l-10.222-7.594l-9.192-8.807l-8.2-9.981l-7.18-10.963l-6.179-11.848l-3.917-9.558l0.019,0.01l68.809,40.714l61.686,36.498
							l78.742,46.585l915.766,541.827c0.144,0.356,0.289,0.712,0.423,1.059c0.115,0.27,0.221,0.53,0.327,0.789
							c0.019,0.038,0.038,0.087,0.048,0.125c0.491,1.163,0.983,2.315,1.493,3.45c0.046,0.101,0.087,0.203,0.133,0.304
							c0.231,0.52,0.472,1.03,0.703,1.54c0.414,0.905,0.828,1.8,1.261,2.685c0.01,0.019,0.019,0.039,0.029,0.058
							c0.443,0.924,0.905,1.838,1.376,2.743c0.308,0.606,0.625,1.213,0.963,1.819c0.279,0.539,0.568,1.078,0.876,1.617
							c0.029,0.067,0.058,0.125,0.106,0.192c0.51,0.934,1.039,1.858,1.578,2.772c0.423,0.741,0.866,1.482,1.319,2.204
							c0.289,0.491,0.587,0.982,0.905,1.463c0.27,0.453,0.558,0.905,0.857,1.348c0.212,0.337,0.433,0.683,0.674,1.02
							c0.433,0.674,0.876,1.338,1.348,1.992c0.096,0.144,0.193,0.298,0.298,0.443c0.587,0.837,1.184,1.665,1.79,2.483
							c0.635,0.876,1.29,1.742,1.944,2.599c0.789,1.02,1.588,2.031,2.416,3.013c0.318,0.395,0.635,0.78,0.972,1.155
							c0.578,0.683,1.165,1.357,1.771,2.021c0.356,0.404,0.722,0.799,1.088,1.184c0.366,0.395,0.731,0.789,1.097,1.174
							c0.693,0.741,1.405,1.463,2.137,2.185c1.396,1.405,2.849,2.762,4.341,4.062c0.154,0.144,0.318,0.279,0.472,0.414
							c0.77,0.674,1.549,1.338,2.339,1.973c0.789,0.655,1.588,1.29,2.387,1.916c2.002,1.55,4.062,3.013,6.198,4.399
							L524.162,2182.967z"/>
					</g>
					<g>
						<path style="fill-rule:evenodd;clip-rule:evenodd;fill:#FFCB05;" d="M451.953,1843.762l334.21,199.259l784.255,467.686
							c1.616-1.043,3.244-2.086,4.968-3.128c4.168-2.5,8.486-4.732,12.956-6.757c4.651-2.116,9.3-3.872,14.089-5.421
							c4.979-1.607,9.975-2.857,15.149-3.869l-777.936-459.02L493.345,1828.16l-15.095,3.842l-14.058,5.36L451.953,1843.762z"/>
					</g>
				</g>
				<g>
					
						<ellipse transform="matrix(0.9933 -0.116 0.116 0.9933 -208.8341 216.6136)" style="fill:#FFCB05;" cx="1757.433" cy="1903.29" rx="577.287" ry="120.8"/>
				</g>
			</g>
			<g style="opacity:0.45;">
				<path style="fill-rule:evenodd;clip-rule:evenodd;fill:#EAAE4E;" d="M3309.708,2312.557l-0.118,12.102
					c-81.749,13.939-655.901,110.23-676.326,113.609L3309.708,2312.557z"/>
			</g>
			<g style="opacity:0.45;">
				<path style="fill-rule:evenodd;clip-rule:evenodd;fill:#EAAE4E;" d="M1541.952,2695.641l2.744,10.013l4.169,11.082
					c81.735-14.568,779.192-158.745,797.915-162.163L1541.952,2695.641z"/>
			</g>
			<g>
				<path style="fill:#E07722;" d="M1898.025,2632.553l120.956-20.407c0,0,17.664,85.029,110.163,145.126
					c68.98,44.817,70.157,149.104,70.157,149.104s-44.267-52.908-72.149-76.895c0,0-1.11,36.398,5.462,97.637
					c0,0-58.846-66.253-115.788-98.505C1932.887,2781.069,1898.025,2632.553,1898.025,2632.553z"/>
			</g>
			<g style="opacity:0.65;">
				<path style="fill:#FFFFFF;" d="M1635.662,2418l-1.592-0.912l-968.982-555.55l1514.325-233.271l1.408,0.689l1007.608,492.751
					l13.607,6.653l-14.895,2.755L1635.662,2418z M694.846,1867.072l942.606,540.428l1532.978-283.464l-992.593-485.408
					L694.846,1867.072z"/>
			</g>
			<g style="opacity:0.5;">
				<polygon style="fill-rule:evenodd;clip-rule:evenodd;fill:#FFFFFF;" points="2554.884,2130.875 1914.606,2252.468 
					1972.908,2277.504 2620.357,2158.084 				"/>
			</g>
		</g>
	</g>
	<g id="_x31_">
		<g id="shadow" style="opacity:0.75;">
			<path style="fill-rule:evenodd;clip-rule:evenodd;fill:#D3C29B;" d="M884.845,1632.475l-338.948,806.527
				c0,0,204.115-73.4,336.939-97.49L2134.37,2237.14l594.259-321.993l-1960.69-192.779L884.845,1632.475z"/>
		</g>
		<g id="book">
			<g>
				<path style="fill:#FFCB05;" d="M2237.959,1438.046c-46.609-127.315-33.821-286.926-33.821-286.926l43.275,33.952l45.58-42.687
					c0,0-8.044,238.941,30.02,280.512"/>
			</g>
			<g>
				<path style="fill:#95BDE8;" d="M2088.165,1454.745c-26.615-49.65-19.93-197.83-19.93-197.83l91.095-12.06
					c0,0-31.914,109.002,8.801,208.388"/>
			</g>
			<g>
				<g>
					<path style="fill:#EA8500;" d="M1898.184,2264.563c0,0,178.249,24.629,244.095,0.006
						c-8.201-222.406-16.561-449.699-24.761-672.104c-60.916,13.809-219.352,655.953-219.352,655.953L1898.184,2264.563z"/>
				</g>
				<g>
					<path style="fill:#FFB600;" d="M1898.167,2248.418c-467.515,20.321-943.422,40.641-1427.722,60.963
						c101.171-220.798,201.904-441.594,302.2-662.391c2.527-5.56,8.655-10.105,13.961-10.358
						c385.823-18.476,764.115-36.953,1134.875-55.43C1913.71,1803.608,1905.938,2026.013,1898.167,2248.418z"/>
				</g>
				<g style="opacity:0.2;">
					<path d="M498.756,2276.553c0,0,260.398,10.643,685.317-23.794s713.346-13.029,713.346-13.029s34.002-73.889-351.377-95.602
						C1160.664,2122.417,498.756,2276.553,498.756,2276.553z"/>
				</g>
				<g>
					<path style="fill:#FFB600;" d="M2117.104,1581.202c368.781,18.444,745.04,36.889,1128.775,55.333
						c6.416,0.312,13.838,5.821,16.89,12.543c99.807,220.321,199.962,440.642,300.465,660.963
						c-482.285-20.541-956.128-41.082-1421.528-61.623C2133.505,2026.013,2125.304,1803.607,2117.104,1581.202z"/>
				</g>
				<g style="opacity:0.2;">
					<path d="M2141.385,2239.731c0,0,270.146-24.277,595.24-9.189c325.095,15.088,666.694,50.775,755.619,44.643
						c0,0-586.489-132.613-989.366-126.397C2100,2155.002,2141.385,2239.731,2141.385,2239.731z"/>
				</g>
				<g>
					<path style="fill:#CC6100;" d="M1898.167,2248.418c76.835,10.796,187.199,17.117,243.538,0
						c-8.2-222.404-16.401-444.809-24.602-667.216c-60.666,13.814-134.932,13.814-195.623,0
						C1913.708,1803.606,1905.937,2026.015,1898.167,2248.418z"/>
				</g>
				<g>
					<path style="fill:#E6D4B8;" d="M806.571,1621.011c-101.277,218.514-203.88,437.028-307.815,655.542
						c843.39-21.047,1062.708-134.361,1398.663-36.823c13.064-218.334,25.088-436.667,36.073-655.001
						C1923.472,1584.73,1464.971,1508.65,806.571,1621.011z"/>
				</g>
				<g>
					<path style="fill:#E6D4B8;" d="M3226.649,1620.866c102.8,218.563,207.285,437.125,313.458,655.688
						c-802.485-19.937-992.415-172.499-1398.722-36.823c-13.417-218.334-25.795-436.667-37.134-655.001
						C2114.242,1584.731,2568.295,1508.501,3226.649,1620.866z"/>
				</g>
				<g>
					<path style="fill:#E6D4B8;" d="M2019.381,2213.292c45.592,0,91.988,11.11,122.003,26.439
						c-8.05-218.334-16.102-436.667-24.151-655.001c-65.574,0-131.148,0-196.723,0c-7.697,218.334-15.394,436.667-23.091,655.001
						C1931.609,2222.179,1973.764,2213.292,2019.381,2213.292z"/>
				</g>
				<g style="opacity:0.3;">
					<g>
						<path d="M898.727,2171.047c73.684-10.175,92.955-11.112,335.578-64.801c198.089-43.361,432.35-101.647,640.796,28.243
							c-52.391-22.965-133.388-68.235-254.908-71.237c-116.961-2.875-270.099,28.605-464.879,65.952
							C1076.407,2144.351,991.55,2159.566,898.727,2171.047z"/>
					</g>
					<g>
						<path d="M781.688,2201.389c91.039-8.57,121.562-6.203,288.296-38.489c165.738-26.896,368.754-80.935,549.439-75.673
							c-0.654,2.618-78.353-5.666-223.535,22.252C1252.373,2131.951,1033.42,2190.629,781.688,2201.389z"/>
					</g>
					<g>
						<path d="M1219.565,2167.458c24.281-5.485,473.194-123.969,716.251,15.747c-0.184,3.425-68.283-40.25-189.176-55.511
							C1625.201,2109.658,1451.206,2120.031,1219.565,2167.458z"/>
					</g>
					<g>
						<path d="M1001.808,2213.537c222.872-12.148,384.313-49.526,578.511-64.47
							C1452.588,2144.146,1081.836,2205.481,1001.808,2213.537z"/>
					</g>
				</g>
				<g style="opacity:0.3;">
					<g>
						<path d="M3263.694,2191.159c-82.021-13.11-104.039-14.709-372.105-77.981c-218.775-51.097-475.491-119.564-709.352,1.126
							c58.445-20.727,149.163-62.379,283.366-60.14c129.19,2.146,297.403,39.978,512.98,85.03
							C3065.925,2157.472,3160.101,2176.009,3263.694,2191.159z"/>
					</g>
					<g>
						<path d="M3159.135,2191.159c-79.128-8.295-105.553-5.844-250.817-37.638c-144.306-26.409-321.506-79.835-478.355-73.997
							c0.612,2.619,67.967-5.92,194.513,21.557C2749.484,2123.109,2940.589,2181.152,3159.135,2191.159z"/>
					</g>
					<g>
						<path d="M2839.598,2167.458c-24.323-5.485-474.165-123.969-716.128,15.747c0.208,3.425,67.978-40.25,188.743-55.511
							C2433.51,2109.658,2607.592,2120.031,2839.598,2167.458z"/>
					</g>
					<g>
						<path d="M3252.42,2239.731c-226.748-19.636-387.888-51.58-584.445-71.744
							C2798.018,2172.213,3171.609,2230.543,3252.42,2239.731z"/>
					</g>
					<g>
						<path d="M2211.806,2183.395c0.496,0.003,101.573-43.844,250.161-34.019C2461.79,2149.375,2303.689,2152.419,2211.806,2183.395
							z"/>
					</g>
				</g>
				<g>
					<path style="fill:#EA8500;" d="M470.445,2309.381v11.094l1427.74-55.912c0,0-0.149-12.39-0.018-16.145
						C1432.98,2267.047,470.445,2309.381,470.445,2309.381z"/>
				</g>
				<g>
					<path style="fill:#EA8500;" d="M2141.705,2248.418c-4.826,0.002,1421.528,61.623,1421.528,61.623v16.754l-1421.112-62.232
						C2142.121,2264.563,2141.844,2252.173,2141.705,2248.418z"/>
				</g>
				<g>
					<path style="fill:#FFEFD1;" d="M498.756,2276.553c10.477-12.2,20.9-24.4,31.269-36.601c4.641-1.481,9.278-2.962,13.908-4.443
						c13.87-13.205,27.643-26.409,41.323-39.614c0.437,0.002,107.763-176.494,157.419-277.841
						c49.782-101.345,152.937-385.73,153.448-385.73c-13.7,16.292-27.524,32.584-41.475,48.877c-1.952,0-3.902,0-5.853,0
						c-13.953,13.27-28.029,26.54-42.223,39.809C705.295,1839.525,602.691,2058.039,498.756,2276.553z"/>
				</g>
				<g>
					<path style="fill:#FFF3DB;" d="M896.123,1532.325c-53.892,153.3-308.819,663.572-310.867,663.571
						c446.377-50.365,765.425-184.82,972.042-189.763c308.398-7.405,459.364,189.761,462.069,189.763
						c-0.177-218.333-0.353-436.667-0.53-655c-1.526,0.002-119.716-188.781-378.582-217.447
						C1496.264,1306.08,909.664,1532.327,896.123,1532.325z"/>
				</g>
				<g style="opacity:0.65;">
					<path style="fill:#E5CEA8;" d="M954.755,1436.789c-54.751,153.986-268.139,673.255-269.261,673.253
						c405.833-22.07,580.756-155.605,894.783-136.883c290.124,17.297,436.874,222.736,439.09,222.736
						c-0.177-218.333-0.353-436.667-0.53-655c-0.979,0.001-116.516-198.829-358.487-251.937
						C1523.67,1256.79,965.913,1436.788,954.755,1436.789z"/>
				</g>
				<g style="opacity:0.05;">
					<path d="M1940.227,2016.467c-84.655-59.166-203.109-114.312-355.878-122.2c-9.3-0.478-19.039-0.721-28.948-0.721
						c-96.334,0-211.738,22.788-345.363,49.179c-123.886,24.462-260.682,51.482-413.257,67.478
						c17.203-38.483,40.955-91.886,67.57-152.491c50.873-115.82,114.821-263.903,150.343-355.666
						c4.173-1.23,8.717-2.569,13.662-4.031c112.272-33.118,453.924-133.911,590.396-133.911c14.912,0,21.758,1.339,23.502,1.747
						l1.165,0.266c161.208,35.382,258.495,146.836,296.442,199.31L1940.227,2016.467z"/>
				</g>
				<g>
					<g>
						<defs>
							<path id="SVGID_1_" d="M1023.551,1311.631c-62.376,145.155-350.696,678.377-354.034,678.375
								c322.041,17.034,701.725-75.962,900.617-65.962c297.513,14.98,446.361,271.852,449.233,271.852
								c-0.185-218.333-0.37-436.667-0.555-655c-7.86-0.002-173.866-329.874-431.883-275.181
								C1113.01,1359.028,1019.002,1311.632,1023.551,1311.631z"/>
						</defs>
						<clipPath id="SVGID_00000176015778061522651710000017923520684613904284_">
							<use xlink:href="#SVGID_1_"  style="overflow:visible;"/>
						</clipPath>
						<path style="clip-path:url(#SVGID_00000176015778061522651710000017923520684613904284_);fill:#FFFBF2;" d="M669.517,1211.021
							v984.875V1211.021z"/>
						
							<rect x="669.517" y="1211.021" style="clip-path:url(#SVGID_00000176015778061522651710000017923520684613904284_);fill:#FFFBF2;" width="35.522" height="984.875"/>
						
							<rect x="705.039" y="1211.021" style="clip-path:url(#SVGID_00000176015778061522651710000017923520684613904284_);fill:#FFFAF1;" width="35.522" height="984.875"/>
						
							<rect x="740.562" y="1211.021" style="clip-path:url(#SVGID_00000176015778061522651710000017923520684613904284_);fill:#FFFAF0;" width="35.522" height="984.875"/>
						
							<rect x="776.084" y="1211.021" style="clip-path:url(#SVGID_00000176015778061522651710000017923520684613904284_);fill:#FFF9EF;" width="35.522" height="984.875"/>
						
							<rect x="811.606" y="1211.021" style="clip-path:url(#SVGID_00000176015778061522651710000017923520684613904284_);fill:#FFF9EE;" width="35.522" height="984.875"/>
						
							<rect x="847.129" y="1211.021" style="clip-path:url(#SVGID_00000176015778061522651710000017923520684613904284_);fill:#FFF8ED;" width="35.522" height="984.875"/>
						
							<rect x="882.651" y="1211.021" style="clip-path:url(#SVGID_00000176015778061522651710000017923520684613904284_);fill:#FFF8EC;" width="35.522" height="984.875"/>
						
							<rect x="918.173" y="1211.021" style="clip-path:url(#SVGID_00000176015778061522651710000017923520684613904284_);fill:#FFF7EB;" width="35.522" height="984.875"/>
						
							<rect x="953.696" y="1211.021" style="clip-path:url(#SVGID_00000176015778061522651710000017923520684613904284_);fill:#FFF7EA;" width="35.522" height="984.875"/>
						
							<rect x="989.218" y="1211.021" style="clip-path:url(#SVGID_00000176015778061522651710000017923520684613904284_);fill:#FFF6E9;" width="35.522" height="984.875"/>
						
							<rect x="1024.74" y="1211.021" style="clip-path:url(#SVGID_00000176015778061522651710000017923520684613904284_);fill:#FFF6E8;" width="35.522" height="984.875"/>
						
							<rect x="1060.263" y="1211.021" style="clip-path:url(#SVGID_00000176015778061522651710000017923520684613904284_);fill:#FFF5E7;" width="35.522" height="984.875"/>
						
							<rect x="1095.785" y="1211.021" style="clip-path:url(#SVGID_00000176015778061522651710000017923520684613904284_);fill:#FFF5E6;" width="35.522" height="984.875"/>
						
							<rect x="1131.308" y="1211.021" style="clip-path:url(#SVGID_00000176015778061522651710000017923520684613904284_);fill:#FFF4E5;" width="35.522" height="984.875"/>
						
							<rect x="1166.83" y="1211.021" style="clip-path:url(#SVGID_00000176015778061522651710000017923520684613904284_);fill:#FFF3E4;" width="35.522" height="984.875"/>
						
							<rect x="1202.352" y="1211.021" style="clip-path:url(#SVGID_00000176015778061522651710000017923520684613904284_);fill:#FFF3E3;" width="35.522" height="984.875"/>
						
							<rect x="1237.875" y="1211.021" style="clip-path:url(#SVGID_00000176015778061522651710000017923520684613904284_);fill:#FFF2E2;" width="35.522" height="984.875"/>
						
							<rect x="1273.397" y="1211.021" style="clip-path:url(#SVGID_00000176015778061522651710000017923520684613904284_);fill:#FFF2E1;" width="35.522" height="984.875"/>
						
							<rect x="1308.92" y="1211.021" style="clip-path:url(#SVGID_00000176015778061522651710000017923520684613904284_);fill:#FFF1E0;" width="35.522" height="984.875"/>
						
							<rect x="1344.442" y="1211.021" style="clip-path:url(#SVGID_00000176015778061522651710000017923520684613904284_);fill:#FFF1DE;" width="35.522" height="984.875"/>
						
							<rect x="1379.964" y="1211.021" style="clip-path:url(#SVGID_00000176015778061522651710000017923520684613904284_);fill:#FFF0DD;" width="35.522" height="984.875"/>
						
							<rect x="1415.487" y="1211.021" style="clip-path:url(#SVGID_00000176015778061522651710000017923520684613904284_);fill:#FFF0DC;" width="35.522" height="984.875"/>
						
							<rect x="1451.009" y="1211.021" style="clip-path:url(#SVGID_00000176015778061522651710000017923520684613904284_);fill:#FFEFDB;" width="35.522" height="984.875"/>
						
							<rect x="1486.531" y="1211.021" style="clip-path:url(#SVGID_00000176015778061522651710000017923520684613904284_);fill:#FFEFDA;" width="35.522" height="984.875"/>
						
							<rect x="1522.054" y="1211.021" style="clip-path:url(#SVGID_00000176015778061522651710000017923520684613904284_);fill:#FFEED9;" width="35.522" height="984.875"/>
						
							<rect x="1557.576" y="1211.021" style="clip-path:url(#SVGID_00000176015778061522651710000017923520684613904284_);fill:#FFEDD8;" width="35.522" height="984.875"/>
						
							<rect x="1593.099" y="1211.021" style="clip-path:url(#SVGID_00000176015778061522651710000017923520684613904284_);fill:#FFEDD7;" width="35.522" height="984.875"/>
						
							<rect x="1628.621" y="1211.021" style="clip-path:url(#SVGID_00000176015778061522651710000017923520684613904284_);fill:#FFECD6;" width="35.522" height="984.875"/>
						
							<rect x="1664.143" y="1211.021" style="clip-path:url(#SVGID_00000176015778061522651710000017923520684613904284_);fill:#FFECD5;" width="35.522" height="984.875"/>
						
							<rect x="1699.666" y="1211.021" style="clip-path:url(#SVGID_00000176015778061522651710000017923520684613904284_);fill:#FFEBD4;" width="35.522" height="984.875"/>
						
							<rect x="1735.188" y="1211.021" style="clip-path:url(#SVGID_00000176015778061522651710000017923520684613904284_);fill:#FFEBD3;" width="35.522" height="984.875"/>
						
							<rect x="1770.71" y="1211.021" style="clip-path:url(#SVGID_00000176015778061522651710000017923520684613904284_);fill:#FFEAD2;" width="35.522" height="984.875"/>
						
							<rect x="1806.233" y="1211.021" style="clip-path:url(#SVGID_00000176015778061522651710000017923520684613904284_);fill:#FFEAD1;" width="35.522" height="984.875"/>
						
							<rect x="1841.755" y="1211.021" style="clip-path:url(#SVGID_00000176015778061522651710000017923520684613904284_);fill:#FFE9D0;" width="35.522" height="984.875"/>
						
							<rect x="1877.277" y="1211.021" style="clip-path:url(#SVGID_00000176015778061522651710000017923520684613904284_);fill:#FFE9CF;" width="35.522" height="984.875"/>
						
							<rect x="1912.8" y="1211.021" style="clip-path:url(#SVGID_00000176015778061522651710000017923520684613904284_);fill:#FFE8CE;" width="35.522" height="984.875"/>
						
							<rect x="1948.322" y="1211.021" style="clip-path:url(#SVGID_00000176015778061522651710000017923520684613904284_);fill:#FFE8CD;" width="35.522" height="984.875"/>
						
							<rect x="1983.845" y="1211.021" style="clip-path:url(#SVGID_00000176015778061522651710000017923520684613904284_);fill:#FFE7CC;" width="35.522" height="984.875"/>
						<path style="clip-path:url(#SVGID_00000176015778061522651710000017923520684613904284_);fill:#FFE7CC;" d="
							M2019.367,2195.896v-984.875V2195.896z"/>
					</g>
				</g>
				<g>
					<path style="fill:#FFF0D9;" d="M3453.997,2195.896c9.676,9.502,19.398,19.003,29.169,28.505
						c5.365,2.222,10.739,4.443,16.121,6.665c13.514,15.162,27.121,30.325,40.82,45.488
						c-106.173-218.563-210.657-437.125-313.458-655.688c-9.843-12.604-19.628-25.207-29.354-37.811
						c-2.965-1.358-5.927-2.716-8.886-4.073c-15.639-15.552-31.125-31.105-46.459-46.657c0.073-0.001,11.068,54.066,76.388,209.585
						C3282.292,1897.433,3452.825,2195.896,3453.997,2195.896z"/>
				</g>
				<g>
					<path style="fill:#FFF3DB;" d="M3141.951,1532.325c54.167,153.3,310.001,663.572,312.046,663.571
						c-446.466-50.365-765.754-184.82-972.38-189.763c-308.408-7.406-459.03,189.766-461.731,189.763
						c-0.211-218.333-0.422-436.667-0.633-655c1.527,0.004,119.378-188.785,378.196-217.447
						C2541.408,1306.08,3128.41,1532.327,3141.951,1532.325z"/>
				</g>
				<g style="opacity:0.65;">
					<path style="fill:#E5CEA8;" d="M3083.149,1436.789c55.021,153.986,285.289,662.824,286.415,662.823
						c-411.212,11.281-702.898-155.177-896.735-145.175c-290.226,14.979-450.73,241.462-452.944,241.459
						c-0.211-218.333-0.422-436.667-0.633-655c0.979,0,116.163-198.834,358.039-251.937
						C2513.914,1256.79,3071.994,1436.788,3083.149,1436.789z"/>
				</g>
				<g style="opacity:0.05;">
					<path d="M2098.272,1565.312c37.859-52.466,134.898-163.835,295.96-199.194l1.165-0.266c1.74-0.409,8.578-1.747,23.487-1.747
						c136.483,0,478.329,100.797,590.662,133.919c4.976,1.466,9.547,2.816,13.743,4.05
						c35.671,91.755,99.906,239.887,150.998,355.746c26.696,60.539,50.522,113.892,67.783,152.364
						c-152.514-16.004-289.299-43.008-413.173-67.463c-133.668-26.387-249.11-49.176-345.444-49.176
						c-9.906,0-19.645,0.243-28.941,0.721c-152.823,7.888-271.223,63.092-355.804,122.301L2098.272,1565.312z"/>
				</g>
				<g>
					<g>
						<defs>
							<path id="SVGID_00000096061402899273057450000015223510474363517066_" d="M3002.539,1262.001
								c96.944,203.672,364.019,642.439,367.026,642.438c-194.74,85.565-720.958,9.607-912.995,19.604
								c-289.462,14.985-433.813,271.852-436.609,271.852c-0.235-218.334-0.472-436.668-0.707-655
								c6.975,0,167.824-316.455,419.72-275.181C2884.538,1333.849,3006.477,1262.001,3002.539,1262.001z"/>
						</defs>
						<clipPath id="SVGID_00000023277383610232681500000011403173154544533682_">
							<use xlink:href="#SVGID_00000096061402899273057450000015223510474363517066_"  style="overflow:visible;"/>
						</clipPath>
						<path style="clip-path:url(#SVGID_00000023277383610232681500000011403173154544533682_);fill:#FFFBF2;" d="M2019.253,1224.44
							v971.455V1224.44z"/>
						
							<rect x="2019.253" y="1224.44" style="clip-path:url(#SVGID_00000023277383610232681500000011403173154544533682_);fill:#FFFBF2;" width="35.535" height="971.455"/>
						
							<rect x="2054.788" y="1224.44" style="clip-path:url(#SVGID_00000023277383610232681500000011403173154544533682_);fill:#FFFAF1;" width="35.535" height="971.455"/>
						
							<rect x="2090.322" y="1224.44" style="clip-path:url(#SVGID_00000023277383610232681500000011403173154544533682_);fill:#FFFAF0;" width="35.535" height="971.455"/>
						
							<rect x="2125.857" y="1224.44" style="clip-path:url(#SVGID_00000023277383610232681500000011403173154544533682_);fill:#FFF9EF;" width="35.535" height="971.455"/>
						
							<rect x="2161.391" y="1224.44" style="clip-path:url(#SVGID_00000023277383610232681500000011403173154544533682_);fill:#FFF9EE;" width="35.535" height="971.455"/>
						
							<rect x="2196.926" y="1224.44" style="clip-path:url(#SVGID_00000023277383610232681500000011403173154544533682_);fill:#FFF8ED;" width="35.535" height="971.455"/>
						
							<rect x="2232.46" y="1224.44" style="clip-path:url(#SVGID_00000023277383610232681500000011403173154544533682_);fill:#FFF8EC;" width="35.535" height="971.455"/>
						
							<rect x="2267.995" y="1224.44" style="clip-path:url(#SVGID_00000023277383610232681500000011403173154544533682_);fill:#FFF7EB;" width="35.535" height="971.455"/>
						
							<rect x="2303.529" y="1224.44" style="clip-path:url(#SVGID_00000023277383610232681500000011403173154544533682_);fill:#FFF7EA;" width="35.535" height="971.455"/>
						
							<rect x="2339.064" y="1224.44" style="clip-path:url(#SVGID_00000023277383610232681500000011403173154544533682_);fill:#FFF6E9;" width="35.535" height="971.455"/>
						
							<rect x="2374.598" y="1224.44" style="clip-path:url(#SVGID_00000023277383610232681500000011403173154544533682_);fill:#FFF6E8;" width="35.535" height="971.455"/>
						
							<rect x="2410.133" y="1224.44" style="clip-path:url(#SVGID_00000023277383610232681500000011403173154544533682_);fill:#FFF5E7;" width="35.535" height="971.455"/>
						
							<rect x="2445.667" y="1224.44" style="clip-path:url(#SVGID_00000023277383610232681500000011403173154544533682_);fill:#FFF5E6;" width="35.535" height="971.455"/>
						
							<rect x="2481.202" y="1224.44" style="clip-path:url(#SVGID_00000023277383610232681500000011403173154544533682_);fill:#FFF4E5;" width="35.535" height="971.455"/>
						
							<rect x="2516.736" y="1224.44" style="clip-path:url(#SVGID_00000023277383610232681500000011403173154544533682_);fill:#FFF3E4;" width="35.535" height="971.455"/>
						
							<rect x="2552.271" y="1224.44" style="clip-path:url(#SVGID_00000023277383610232681500000011403173154544533682_);fill:#FFF3E3;" width="35.535" height="971.455"/>
						
							<rect x="2587.805" y="1224.44" style="clip-path:url(#SVGID_00000023277383610232681500000011403173154544533682_);fill:#FFF2E2;" width="35.535" height="971.455"/>
						
							<rect x="2623.34" y="1224.44" style="clip-path:url(#SVGID_00000023277383610232681500000011403173154544533682_);fill:#FFF2E1;" width="35.535" height="971.455"/>
						
							<rect x="2658.874" y="1224.44" style="clip-path:url(#SVGID_00000023277383610232681500000011403173154544533682_);fill:#FFF1E0;" width="35.535" height="971.455"/>
						
							<rect x="2694.409" y="1224.44" style="clip-path:url(#SVGID_00000023277383610232681500000011403173154544533682_);fill:#FFF1DE;" width="35.535" height="971.455"/>
						
							<rect x="2729.943" y="1224.44" style="clip-path:url(#SVGID_00000023277383610232681500000011403173154544533682_);fill:#FFF0DD;" width="35.535" height="971.455"/>
						
							<rect x="2765.478" y="1224.44" style="clip-path:url(#SVGID_00000023277383610232681500000011403173154544533682_);fill:#FFF0DC;" width="35.535" height="971.455"/>
						
							<rect x="2801.012" y="1224.44" style="clip-path:url(#SVGID_00000023277383610232681500000011403173154544533682_);fill:#FFEFDB;" width="35.535" height="971.455"/>
						
							<rect x="2836.547" y="1224.44" style="clip-path:url(#SVGID_00000023277383610232681500000011403173154544533682_);fill:#FFEFDA;" width="35.535" height="971.455"/>
						
							<rect x="2872.081" y="1224.44" style="clip-path:url(#SVGID_00000023277383610232681500000011403173154544533682_);fill:#FFEED9;" width="35.535" height="971.455"/>
						
							<rect x="2907.616" y="1224.44" style="clip-path:url(#SVGID_00000023277383610232681500000011403173154544533682_);fill:#FFEDD8;" width="35.535" height="971.455"/>
						
							<rect x="2943.15" y="1224.44" style="clip-path:url(#SVGID_00000023277383610232681500000011403173154544533682_);fill:#FFEDD7;" width="35.535" height="971.455"/>
						
							<rect x="2978.685" y="1224.44" style="clip-path:url(#SVGID_00000023277383610232681500000011403173154544533682_);fill:#FFECD6;" width="35.535" height="971.455"/>
						
							<rect x="3014.219" y="1224.44" style="clip-path:url(#SVGID_00000023277383610232681500000011403173154544533682_);fill:#FFECD5;" width="35.535" height="971.455"/>
						
							<rect x="3049.754" y="1224.44" style="clip-path:url(#SVGID_00000023277383610232681500000011403173154544533682_);fill:#FFEBD4;" width="35.535" height="971.455"/>
						
							<rect x="3085.289" y="1224.44" style="clip-path:url(#SVGID_00000023277383610232681500000011403173154544533682_);fill:#FFEBD3;" width="35.535" height="971.455"/>
						
							<rect x="3120.823" y="1224.44" style="clip-path:url(#SVGID_00000023277383610232681500000011403173154544533682_);fill:#FFEAD2;" width="35.535" height="971.455"/>
						
							<rect x="3156.357" y="1224.44" style="clip-path:url(#SVGID_00000023277383610232681500000011403173154544533682_);fill:#FFEAD1;" width="35.535" height="971.455"/>
						
							<rect x="3191.892" y="1224.44" style="clip-path:url(#SVGID_00000023277383610232681500000011403173154544533682_);fill:#FFE9D0;" width="35.535" height="971.455"/>
						
							<rect x="3227.427" y="1224.44" style="clip-path:url(#SVGID_00000023277383610232681500000011403173154544533682_);fill:#FFE9CF;" width="35.535" height="971.455"/>
						
							<rect x="3262.961" y="1224.44" style="clip-path:url(#SVGID_00000023277383610232681500000011403173154544533682_);fill:#FFE8CE;" width="35.535" height="971.455"/>
						
							<rect x="3298.496" y="1224.44" style="clip-path:url(#SVGID_00000023277383610232681500000011403173154544533682_);fill:#FFE8CD;" width="35.535" height="971.455"/>
						
							<rect x="3334.03" y="1224.44" style="clip-path:url(#SVGID_00000023277383610232681500000011403173154544533682_);fill:#FFE7CC;" width="35.535" height="971.455"/>
						<path style="clip-path:url(#SVGID_00000023277383610232681500000011403173154544533682_);fill:#FFE7CC;" d="
							M3369.565,2195.896V1224.44V2195.896z"/>
					</g>
				</g>
				<g style="opacity:0.35;">
					<g>
						<path style="fill:#F7931E;" d="M1601.252,1686.66c-62.345-7.157-136.091-6.391-219.193,2.266
							c-19.891,2.011-40.895,4.571-62.392,7.605l-1.978,0.274c-164.175,25.333-283.785,38.522-385.872,42.508
							c-0.82,1.614-1.647,3.242-2.463,4.847c102.856-3.865,223.273-17.073,388.99-42.646l1.948-0.269
							c21.476-3.032,42.418-5.583,62.252-7.589c82.76-8.622,156.165-9.388,218.164-2.273c9.52,1.091,20.533,2.384,30.782,3.93
							c99.204,14.954,194.69,59.164,277.992,128.145l0.127-6.099c-83.28-68.151-178.506-111.84-277.409-126.749
							C1621.874,1689.053,1610.81,1687.754,1601.252,1686.66z"/>
					</g>
					<g>
						<path style="fill:#F7931E;" d="M1622.303,1652.096c-61.233-9.841-131.337-11.139-208.351-3.847
							c-19.916,1.883-39.98,4.302-59.585,7.185l-1.904,0.274c-168.276,27.198-295.826,41.439-400.956,44.783
							c-0.819,1.618-1.636,3.233-2.453,4.846c105.83-3.201,234.308-17.483,404.085-44.923l1.871-0.269
							c19.574-2.876,39.556-5.288,59.388-7.164c76.62-7.25,146.317-5.971,207.492,3.865c10.031,1.613,19.508,3.138,28.626,4.898
							c92.735,17.906,181.905,62.984,259.613,130.715l0.13-6.229c-77.633-66.823-166.476-111.318-258.842-129.152
							C1642.226,1655.302,1632.715,1653.772,1622.303,1652.096z"/>
					</g>
					<g>
						<path style="fill:#F7931E;" d="M1580.21,1721.226c-61.809-4.511-139.209-1.69-230.043,8.38
							c-20.425,2.222-42.371,4.919-65.21,8.021l-2.039,0.274c-106.831,15.607-244.375,34.032-370.797,40.089
							c-0.838,1.642-1.659,3.249-2.489,4.875c127.377-5.931,266.268-24.527,373.927-40.254l2.015-0.269
							c22.82-3.099,44.726-5.792,65.113-8.009c90.549-10.041,167.649-12.852,229.177-8.366c13.481,0.982,23.533,1.878,32.593,2.907
							c105.583,11.965,207.39,55.311,296.381,125.582l0.125-5.989c-89.014-69.507-190.623-112.379-295.972-124.317
							C1603.866,1723.114,1593.756,1722.213,1580.21,1721.226z"/>
					</g>
					<g>
						<path style="fill:#F7931E;" d="M1559.176,1755.798c-61.435-2.145-137.986,2.459-240.898,14.491
							c-20.701,2.396-42.954,5.156-68.019,8.436l-2.108,0.271c-109.117,14.935-234.744,31.225-355.816,37.707
							c-0.84,1.64-1.676,3.273-2.502,4.887c122.104-6.391,248.922-22.823,358.934-37.879l2.094-0.272
							c25.055-3.278,47.288-6.036,67.968-8.429c102.664-12.004,178.992-16.615,240.181-14.463
							c12.988,0.455,24.243,1.07,34.406,1.885c111.888,8.955,220.022,51.436,314.779,123.019l0.122-5.894
							c-94.821-70.873-202.81-112.922-314.521-121.865C1583.558,1756.873,1572.234,1756.253,1559.176,1755.798z"/>
					</g>
					<g>
						<path style="fill:#F7931E;" d="M1083.694,1431.524c11.588,0.511,23.854,0.796,36.82,0.796
							c115.13,0,275.386-20.062,476.327-59.629l1.249-0.251c13.105-2.783,26.295-4.195,39.2-4.195
							c91.094,0,184.3,69.635,277.355,207.068l0.172-8.244c-92.687-135.093-185.967-203.578-277.527-203.578
							c-13.237,0-26.757,1.446-40.163,4.292l-1.214,0.244c-200.628,39.507-360.577,59.539-475.398,59.539
							c-12.182,0-23.726-0.257-34.683-0.71C1085.127,1428.398,1084.423,1429.937,1083.694,1431.524z"/>
					</g>
					<g>
						<path style="fill:#F7931E;" d="M1907.67,1910.634c-100.669-72.232-215.036-113.452-333.066-119.397
							c-11.487-0.573-23.751-0.866-36.456-0.866c-89.464,0-203.685,14.428-324.764,29.721
							c-106.54,13.463-224.997,28.398-340.866,35.246c-0.859,1.673-1.689,3.286-2.524,4.91
							c116.918-6.781,236.532-21.863,344.138-35.458c120.774-15.256,234.851-29.666,324.016-29.666
							c12.627,0,24.812,0.29,36.217,0.861c118.151,5.95,232.615,47.567,333.184,120.458L1907.67,1910.634z"/>
					</g>
					<g>
						<path style="fill:#F7931E;" d="M1646.124,1618.125l-2.763-0.585c-60.021-12.712-126.469-16.071-197.517-9.973
							c-19.066,1.637-38.191,3.916-56.769,6.769l-1.839,0.274c-174.693,29.383-306.589,44.324-415.08,47.014
							c-0.347,0.009-0.694,0.012-1.04,0.02c-0.807,1.603-1.613,3.201-2.42,4.802c1.191-0.025,2.384-0.038,3.576-0.068
							c108.723-2.7,240.833-17.659,415.651-47.065l1.803-0.269c18.544-2.846,37.561-5.114,56.523-6.741
							c70.575-6.041,136.558-2.725,196.127,9.889l2.762,0.585c8.515,1.801,16.557,3.501,24.389,5.391
							c86.166,20.806,169.022,66.749,241.245,133.284l0.133-6.377c-72.088-65.543-154.546-110.832-240.263-131.527
							C1662.745,1621.642,1654.671,1619.934,1646.124,1618.125z"/>
					</g>
					<g>
						<path style="fill:#F7931E;" d="M1046.392,1549.35c112.839-1.354,258.741-18.806,445.888-53.331
							c0.121-0.014,0.534-0.086,0.931-0.156l0.687-0.118c15.744-2.798,31.857-4.639,47.894-5.469
							c55.237-2.865,110.086,6.581,163.013,28.067c7.122,2.89,14.488,5.883,21.685,9.042
							c66.618,29.253,129.152,76.685,186.219,140.997l0.146-7.032c-56.603-62.875-118.535-109.372-184.452-138.32
							c-7.26-3.185-14.656-6.189-21.81-9.093c-53.577-21.75-109.116-31.317-165.047-28.41c-16.234,0.843-32.545,2.707-48.368,5.52
							l-1.609,0.274c-187.031,34.499-332.668,51.924-445.234,53.275c-5.676,0.068-11.302,0.065-16.899,0.029
							c-0.774,1.572-1.548,3.147-2.328,4.728C1033.489,1549.41,1039.909,1549.425,1046.392,1549.35z"/>
					</g>
					<g>
						<path style="fill:#F7931E;" d="M1071.104,1510.34c113.663-1.075,267.126-19.73,455.977-55.423
							c0.079-0.009,0.46-0.076,0.841-0.146l0.703-0.128c14.867-2.791,30.01-4.487,45.006-5.044
							c50.803-1.866,101.924,9.588,151.968,34.1c5.896,2.888,12.868,6.343,19.851,10.057
							c59.272,31.516,115.659,79.82,167.905,143.606l0.153-7.348c-51.655-62.151-107.332-109.355-165.824-140.455
							c-7.046-3.747-14.061-7.222-19.995-10.131c-50.754-24.859-102.646-36.507-154.233-34.578
							c-15.231,0.564-30.609,2.286-45.559,5.1c-0.079,0.01-0.46,0.077-0.841,0.147l-0.706,0.128
							c-188.726,35.662-341.91,54.29-455.283,55.362c-7.712,0.051-15.18-0.009-22.481-0.133c-0.759,1.563-1.525,3.14-2.293,4.718
							C1054.306,1510.328,1062.562,1510.394,1071.104,1510.34z"/>
					</g>
					<g>
						<path style="fill:#F7931E;" d="M1709.138,1556.523c-6.872-2.489-13.945-4.842-21.1-7.222l-2.533-0.843
							c-56.101-18.679-115.261-26.163-175.862-22.251c-17.174,1.11-34.423,3.111-51.158,5.936l-1.692,0.274
							c-181.857,32.651-324.207,49.394-435.184,51.188c-3.875,0.063-7.641,0.017-11.461,0.033c-0.788,1.587-1.573,3.167-2.364,4.76
							c4.624-0.007,9.202,0.037,13.905-0.038c111.233-1.799,253.834-18.567,435.818-51.244l1.667-0.269
							c16.68-2.814,33.764-4.796,50.778-5.894c59.984-3.865,118.541,3.531,174.056,22.019l2.533,0.843
							c7.113,2.365,14.147,4.703,20.979,7.18c73.739,26.706,142.425,73.275,204.547,138.404l0.141-6.777
							C1850.441,1628.767,1782.261,1583.007,1709.138,1556.523z"/>
					</g>
					<g>
						<path style="fill:#F7931E;" d="M1667.857,1583.914l-3.427-0.919c-58.278-15.665-121.106-21.081-186.687-16.106
							c-18.126,1.372-36.308,3.512-53.972,6.352l-1.757,0.274c-176.91,30.808-315.972,46.87-425.132,49.101
							c-2.077,0.043-4.128,0.019-6.196,0.048c-0.796,1.59-1.593,3.183-2.391,4.775c2.895-0.034,5.773-0.009,8.685-0.069
							c109.404-2.238,248.701-18.321,425.728-49.152l1.741-0.272c17.608-2.828,35.66-4.954,53.651-6.317
							c65.066-4.928,127.339,0.436,185.095,15.958l3.429,0.919c7.468,2.003,14.811,3.974,21.903,6.083
							c79.471,23.614,156.024,70.429,222.891,135.856l0.136-6.556c-66.662-64.331-142.731-110.401-221.672-133.86
							C1682.752,1587.909,1675.367,1585.929,1667.857,1583.914z"/>
					</g>
					<g>
						<path style="fill:#F7931E;" d="M1095.809,1471.33c114.469-0.543,271.328-19.902,466.016-57.505
							c0.048-0.007,0.562-0.098,1.003-0.181l0.527-0.102c14.098-2.809,28.266-4.362,42.113-4.62
							c46.501-1.061,93.903,12.487,140.915,40.115c6.516,3.828,12.411,7.448,18.017,11.067
							c51.629,33.328,101.876,82.511,149.6,146.231l0.161-7.738c-46.979-61.824-96.399-109.705-147.184-142.486
							c-5.662-3.656-11.61-7.311-18.184-11.173c-47.783-28.078-96.064-41.726-143.42-40.769
							c-14.124,0.262-28.573,1.848-42.819,4.689l-1.423,0.269c-194.604,37.578-351.17,56.906-465.339,57.449
							c-9.803,0.017-19.271-0.1-28.345-0.354c-0.73,1.536-1.489,3.122-2.232,4.682
							C1074.982,1471.204,1085.18,1471.355,1095.809,1471.33z"/>
					</g>
				</g>
				<g style="opacity:0.4;">
					<g>
						<path style="fill:#F7931E;" d="M2964.573,1666.057c-14.699,0.141-30.116,0.106-45.867-0.098
							c-69.744-0.894-151.775-4.882-250.788-12.188c-26.799-1.906-53.368-3.891-79.296-5.827
							c-32.148-2.403-63.309-4.731-92.689-6.742l-1.154-0.079c-12.309-0.801-24.199-1.207-35.342-1.207
							c-14.95,0-29.467,0.782-44.379,2.393c-97.764,10.553-193.989,57.428-280.341,135.964l0.153,6.336
							c86.383-79.54,182.794-127.008,280.698-137.574c14.741-1.593,29.09-2.365,43.869-2.365c11.041,0,22.827,0.404,35.033,1.198
							l0.509,0.035c0.286,0.026,0.592,0.051,0.629,0.044c29.372,2.008,60.521,4.337,92.662,6.737
							c25.933,1.936,52.509,3.923,79.306,5.827c99.103,7.315,181.23,11.305,251.113,12.201c15.751,0.209,31.21,0.242,45.926,0.098
							c45.702-0.313,86.747-2.241,122.888-5.675l-2.462-4.54C3049.531,1663.896,3009.295,1665.75,2964.573,1666.057z"/>
					</g>
					<g>
						<path style="fill:#F7931E;" d="M3007.859,1742.05c-15.282,0.074-31.453-0.023-48.11-0.283
							c-88.487-1.37-182.55-6.962-262.896-12.25l-32.299-2.089c-53.069-3.445-103.194-6.7-148.235-8.785l-1.124-0.051
							c-13.063-0.571-25.508-0.861-36.99-0.861c-15.747,0-30.548,0.567-45.252,1.73c-104.315,8.258-206.152,50.426-296.701,122.322
							l0.145,5.981c90.508-72.677,192.487-115.296,296.931-123.563c14.577-1.154,29.255-1.716,44.876-1.716
							c11.412,0,23.788,0.288,36.835,0.859l1.119,0.051c44.937,2.08,95.041,5.332,148.086,8.775l32.299,2.092
							c80.402,5.293,174.537,10.888,263.175,12.259c16.647,0.26,32.849,0.36,48.159,0.283c45.012-0.14,85.63-1.665,121.46-4.542
							l-2.478-4.569C3091.672,1740.452,3051.877,1741.913,3007.859,1742.05z"/>
					</g>
					<g>
						<path style="fill:#F7931E;" d="M2487.592,1761.392c11.573,0,24.241,0.23,37.673,0.685l1.17,0.039
							c50.454,1.795,108.356,5.344,169.659,9.103l14.936,0.915c83.264,5.163,179.601,10.795,269.207,12.292
							c16.967,0.283,33.529,0.409,49.275,0.376c44.664-0.067,85.012-1.432,120.699-4.062l-2.489-4.589
							c-35.042,2.519-74.548,3.832-118.219,3.896c-15.721,0.037-32.25-0.091-49.234-0.376
							c-89.462-1.495-185.731-7.125-268.946-12.283l-14.939-0.915c-61.333-3.761-119.265-7.313-169.806-9.109l-1.172-0.04
							c-13.467-0.457-26.188-0.687-37.814-0.687c-16.375,0-31.321,0.457-45.691,1.397
							c-107.422,7.025-212.068,46.854-304.878,115.527l0.141,5.836c92.742-69.359,197.504-109.586,305.048-116.618
							C2456.477,1761.848,2471.321,1761.392,2487.592,1761.392z"/>
					</g>
					<g>
						<path style="fill:#F7931E;" d="M3168.569,1814.582c-34.896,2.297-74.13,3.464-117.423,3.464
							c-105.894,0-222.487-6.79-325.356-12.782c-85.752-4.998-166.749-9.718-228.815-9.718c-17.304,0-32.394,0.348-46.127,1.066
							c-110.371,5.716-217.821,43.229-313.055,108.77l0.138,5.696c95.143-66.139,202.686-103.995,313.163-109.716
							c13.653-0.715,28.661-1.061,45.882-1.061c61.927,0,142.858,4.715,228.537,9.708c102.934,5.996,219.601,12.791,325.634,12.791
							c44.298,0,84.365-1.22,119.916-3.622L3168.569,1814.582z"/>
					</g>
					<g>
						<path style="fill:#F7931E;" d="M2129.347,1556.412l0.194,8.016c88.783-127.467,177.566-192.109,264.206-192.109
							c9.483,0,19.191,0.801,28.865,2.384l1.056,0.17c132.374,20.241,250.595,30.506,351.412,30.511
							c35.924,0,102.888-1.595,165.21-11.629l-2.408-4.439c-61.522,9.746-127.344,11.314-162.837,11.314
							c-100.542-0.005-218.522-10.252-350.638-30.453l-1.033-0.167c-9.92-1.623-19.888-2.444-29.626-2.444
							C2306.689,1367.566,2217.861,1431.091,2129.347,1556.412z"/>
					</g>
					<g>
						<path style="fill:#F7931E;" d="M2986.216,1704.055c-14.978,0.1-30.766,0.037-46.989-0.193
							c-91.956-1.302-190.62-7.598-256.842-12.22c-17.901-1.21-35.669-2.44-53.175-3.651c-43.662-3.025-84.903-5.883-123.135-8.07
							l-1.091-0.065c-12.699-0.685-24.865-1.033-36.161-1.033c-15.301,0-29.961,0.676-44.816,2.061
							c-101.089,9.434-200.117,53.956-288.522,129.138l0.149,6.151c88.396-76.071,187.59-121.108,288.814-130.553
							c14.708-1.374,29.222-2.043,44.375-2.043c11.21,0,23.291,0.346,35.906,1.028l1.156,0.065
							c38.123,2.182,79.35,5.038,122.996,8.063c17.511,1.212,35.282,2.445,53.18,3.654c66.271,4.624,165.026,10.925,257.141,12.232
							c16.211,0.232,32.045,0.29,47.042,0.19c45.354-0.222,86.218-1.93,122.195-5.073l-2.471-4.556
							C3070.627,1702.197,3030.584,1703.836,2986.216,1704.055z"/>
					</g>
					<g>
						<path style="fill:#F7931E;" d="M2856.356,1476.071c-13.219,0.306-26.753,0.43-40.261,0.367
							c-65.741-0.288-139.928-4.337-220.502-12.03c-46.996-4.383-97.722-10.033-150.765-16.798l-0.515-0.067
							c-0.355-0.049-0.759-0.109-0.545-0.072c-10.583-1.386-21.1-2.089-31.252-2.089c-14.01,0-27.82,1.328-42.218,4.062
							c-81.254,15.429-161.662,72.733-239.419,170.265l0.178,7.359c78.122-99.339,158.789-157.51,240.127-172.953
							c24.336-4.622,47.284-5.158,71.966-1.932l0.504,0.067c0.367,0.051,0.761,0.091,0.571,0.077
							c53.099,6.769,103.879,12.427,150.923,16.814c80.71,7.707,155.041,11.76,220.959,12.051
							c13.516,0.074,27.099-0.061,40.354-0.367c47.02-0.963,89.224-4.096,126.037-9.26l-2.421-4.462
							C2943.867,1472.092,2902.45,1475.126,2856.356,1476.071z"/>
					</g>
					<g>
						<path style="fill:#F7931E;" d="M2877.999,1514.068c-13.578,0.274-27.493,0.365-41.382,0.274
							c-66.981-0.425-143.204-4.482-226.561-12.062c-47.367-4.174-98.07-9.39-155.009-15.95l-0.271,2.361l-0.202-2.419
							c-0.473-0.063-0.668-0.084-0.608-0.072c-10.934-1.27-21.724-1.913-32.066-1.913c-14.112,0-28.062,1.221-42.647,3.73
							c-84.975,14.619-168.129,69.596-247.607,163.343l0.174,7.192c79.78-95.376,163.163-151.212,248.24-165.849
							c14.316-2.463,28.002-3.661,41.84-3.661c10.161,0,20.766,0.634,31.519,1.881l0.543,0.065c0.286,0.037,0.562,0.068,0.562,0.068
							s-0.007,0-0.019-0.002c56.98,6.565,107.726,11.788,155.127,15.965c83.482,7.591,159.842,11.656,226.99,12.081
							c13.908,0.095,27.858,0.005,41.468-0.274c46.78-0.8,88.781-3.648,125.473-8.426l-2.425-4.47
							C2965.059,1510.538,2923.835,1513.284,2877.999,1514.068z"/>
					</g>
					<g>
						<path style="fill:#F7931E;" d="M2834.716,1438.075c-12.907,0.336-26.059,0.515-39.147,0.459
							c-64.298-0.148-136.444-4.186-214.438-12c-46.337-4.578-95.633-10.514-146.939-17.703c-0.441-0.07-0.931-0.123-0.62-0.091
							c-24.398-3.577-48.079-2.904-72.23,2.134c-77.484,16.163-155.148,75.694-231.231,177.1l0.187,7.734
							c76.519-103.409,154.464-164.004,232.014-180.182c13.685-2.853,27.419-4.299,40.818-4.299c9.718,0,19.728,0.745,29.819,2.226
							l0.998,0.147c50.954,7.138,100.315,13.081,146.712,17.666c78.145,7.83,150.447,11.874,214.935,12.023
							c13.076,0.033,26.293-0.126,39.239-0.46c46.533-1.137,89.781-4.636,126.572-10.147l-2.418-4.457
							C2922.76,1433.562,2880.347,1436.961,2834.716,1438.075z"/>
					</g>
					<g>
						<path style="fill:#F7931E;" d="M2942.933,1628.059c-14.417,0.17-29.457,0.174-44.749-0.005
							c-69.888-0.794-149.936-4.771-244.733-12.155c-38.29-2.867-76.186-5.966-112.835-8.961
							c-18.736-1.532-37.092-3.034-54.907-4.455l-0.527-0.042c-0.293-0.026-0.543-0.058-0.611-0.049
							c-11.956-0.917-23.57-1.383-34.518-1.383c-14.655,0-29.03,0.891-43.945,2.725c-94.35,11.61-187.778,60.805-272.161,142.753
							l0.159,6.594c84.459-83.091,178.089-132.999,272.582-144.629c14.72-1.808,28.905-2.688,43.365-2.688
							c10.828,0,22.319,0.46,34.156,1.37l0.527,0.042c0.306,0.031,0.576,0.061,0.597,0.049c17.81,1.421,36.162,2.92,54.898,4.453
							c36.656,2.997,74.558,6.094,112.858,8.963c94.895,7.394,175.048,11.373,245.082,12.169
							c15.291,0.179,30.371,0.179,44.811,0.005c45.992-0.414,87.294-2.545,123.577-6.284l-2.458-4.532
							C3028.441,1625.595,2987.96,1627.654,2942.933,1628.059z"/>
					</g>
					<g>
						<path style="fill:#F7931E;" d="M2899.645,1552.066c-13.764,0.244-28.05,0.302-42.506,0.181
							c-67.954-0.552-146.215-4.62-232.618-12.092c-59.898-4.993-119.574-11.015-159.252-15.11l-0.55-0.056
							c-0.353-0.044-0.59-0.06-0.552-0.06c-11.273-1.152-22.337-1.734-32.882-1.734c-14.256,0-28.347,1.109-43.079,3.394
							c-88.647,13.744-174.546,66.396-255.794,156.441l0.167,6.94c81.489-91.506,167.595-144.922,256.356-158.683
							c14.488-2.247,28.34-3.338,42.35-3.338c10.384,0,21.284,0.576,32.398,1.711l0.242-2.365l0.237,2.417
							c0.309,0.035,0.627,0.065,0.636,0.065c0,0-0.005,0-0.016,0c39.697,4.095,99.405,10.12,159.338,15.115
							c86.516,7.484,164.903,11.558,233.017,12.111c14.456,0.114,28.787,0.056,42.583-0.181
							c46.509-0.657,88.335-3.224,124.886-7.631l-2.436-4.492C2986.234,1548.948,2945.2,1551.424,2899.645,1552.066z"/>
					</g>
					<g>
						<path style="fill:#F7931E;" d="M2921.288,1590.061c-14.147,0.209-28.807,0.237-43.627,0.088
							c-68.62-0.673-148.92-4.752-238.674-12.125c-54.78-4.325-108.563-9.239-160.576-13.994l-2.923-0.267l-0.524-0.046
							c-0.313-0.033-0.631-0.065-0.594-0.056c-11.608-1.035-22.948-1.56-33.701-1.56c-14.439,0-28.672,1-43.511,3.06
							c-92.259,12.799-180.905,63.129-263.979,149.554l0.165,6.816c83.261-87.747,172.083-138.843,264.468-151.662
							c14.618-2.027,28.637-3.013,42.856-3.013c10.614,0,21.81,0.518,33.279,1.542l0.52,0.046c0.309,0.033,0.617,0.056,0.59,0.056
							l2.923,0.267c52.026,4.754,105.826,9.671,160.624,13.999c89.862,7.38,170.277,11.465,239.053,12.139
							c14.81,0.149,29.52,0.125,43.694-0.089c46.254-0.526,87.829-2.864,124.248-6.927l-2.453-4.522
							C3007.341,1587.281,2966.593,1589.546,2921.288,1590.061z"/>
					</g>
				</g>
			</g>
		</g>
	</g>
</g>
</svg>
