<svg id="Capa_1" enable-background="new 0 0 480.051 480.051" height="512" viewBox="0 0 480.051 480.051" width="512" xmlns="http://www.w3.org/2000/svg"><g><path d="m240.025.031c-62.788-.88-114.449 49.214-115.501 112v16h-75.312c-14.563.063-28.315 6.715-37.405 18.093-10.081 12.436-13.989 28.77-10.627 44.422l51.594 248.89c4.22 23.29 24.364 40.315 48.032 40.595h278.438c23.668-.28 43.812-17.305 48.032-40.595l51.594-248.874c3.364-15.658-.543-31.997-10.627-44.438-9.09-11.378-22.842-18.03-37.405-18.093h-75.312v-16c-1.053-62.786-52.713-112.88-115.501-112zm-83.501 112c1.049-45.113 38.384-80.883 83.501-80 45.117-.883 82.452 34.887 83.501 80v16h-167.002zm274.314 48c4.932.081 9.561 2.39 12.592 6.282 3.97 4.991 5.486 11.503 4.128 17.734l-51.597 248.89c-1.258 8.375-8.257 14.695-16.717 15.094h-278.438c-8.46-.399-15.459-6.719-16.717-15.094l-51.597-248.906c-1.356-6.226.16-12.732 4.128-17.718 3.031-3.891 7.66-6.201 12.592-6.282h75.312v80c0 8.837 7.163 16 16 16s16-7.163 16-16v-80h167.002v80c0 8.837 7.163 16 16 16s16-7.163 16-16v-80z"/></g></svg>